<svg width="320" height="46" viewBox="0 0 320 46" fill="none" xmlns="http://www.w3.org/2000/svg">
<rect x="0.25" y="-0.25" width="230.5" height="0.5" transform="matrix(1 0 0 -1 0 45.4105)" stroke="#363636" stroke-opacity="0.3" stroke-width="0.5"/>
<path d="M14.938 24.0405L11.494 33.9105H10.514L7.7 25.8325L4.886 33.9105H3.92L0.462 24.0405H1.624L4.424 32.2865L7.294 24.0405L8.162 24.0545L10.99 32.3005L13.818 24.0405H14.938ZM19.8882 26.9245C21.5215 26.9245 22.3382 27.8252 22.3382 29.6265V33.9105H21.2042V29.6965C21.2042 29.0619 21.0782 28.5999 20.8262 28.3105C20.5835 28.0212 20.1915 27.8765 19.6502 27.8765C19.0249 27.8765 18.5255 28.0679 18.1522 28.4505C17.7789 28.8332 17.5922 29.3512 17.5922 30.0045V33.9105H16.4582V24.0405H17.5922V28.1845C17.8162 27.7739 18.1242 27.4612 18.5162 27.2465C18.9175 27.0319 19.3749 26.9245 19.8882 26.9245ZM27.1872 26.9245C28.0552 26.9245 28.6992 27.1485 29.1192 27.5965C29.5486 28.0352 29.7632 28.7072 29.7632 29.6125V33.9105H28.6572V32.7485C28.4799 33.1499 28.2092 33.4625 27.8452 33.6865C27.4812 33.9012 27.0612 34.0085 26.5852 34.0085C26.1466 34.0085 25.7406 33.9199 25.3672 33.7425C25.0032 33.5652 24.7139 33.3179 24.4992 33.0005C24.2846 32.6832 24.1772 32.3332 24.1772 31.9505C24.1772 31.4372 24.3079 31.0405 24.5692 30.7605C24.8306 30.4712 25.2599 30.2659 25.8572 30.1445C26.4546 30.0139 27.2852 29.9485 28.3492 29.9485H28.6572V29.4865C28.6572 28.9172 28.5406 28.5065 28.3072 28.2545C28.0739 27.9932 27.6959 27.8625 27.1732 27.8625C26.3892 27.8625 25.6099 28.1052 24.8352 28.5905L24.4572 27.7645C24.8119 27.5125 25.2366 27.3119 25.7312 27.1625C26.2352 27.0039 26.7206 26.9245 27.1872 26.9245ZM26.7392 33.1125C27.2992 33.1125 27.7566 32.9259 28.1112 32.5525C28.4752 32.1699 28.6572 31.6799 28.6572 31.0825V30.6765H28.4052C27.5839 30.6765 26.9586 30.7139 26.5292 30.7885C26.0999 30.8539 25.7919 30.9705 25.6052 31.1385C25.4279 31.2972 25.3392 31.5352 25.3392 31.8525C25.3392 32.2165 25.4699 32.5199 25.7312 32.7625C26.0019 32.9959 26.3379 33.1125 26.7392 33.1125ZM34.8351 33.0985C35.0404 33.0985 35.2457 33.0845 35.4511 33.0565L35.3951 33.9525C35.1804 33.9899 34.9471 34.0085 34.6951 34.0085C33.8737 34.0085 33.2531 33.7939 32.8331 33.3645C32.4224 32.9352 32.2171 32.3379 32.2171 31.5725V27.9885H30.8871V27.0925H32.2171V25.0205H33.3511V27.0925H35.2831V27.9885H33.3511V31.4885C33.3511 32.5619 33.8457 33.0985 34.8351 33.0985ZM40.2063 27.0925H41.3403V33.9105H40.2063V27.0925ZM41.4663 24.1385V25.4125H40.0943V24.1385H41.4663ZM45.7702 34.0085C44.6222 34.0085 43.7122 33.7145 43.0402 33.1265L43.4182 32.2865C43.7822 32.5759 44.1508 32.7859 44.5242 32.9165C44.9068 33.0379 45.3362 33.0985 45.8122 33.0985C46.3162 33.0985 46.6988 33.0145 46.9602 32.8465C47.2308 32.6692 47.3662 32.4172 47.3662 32.0905C47.3662 31.8199 47.2775 31.6052 47.1002 31.4465C46.9228 31.2879 46.6288 31.1619 46.2182 31.0685L45.0702 30.8025C44.4915 30.6719 44.0482 30.4479 43.7402 30.1305C43.4322 29.8132 43.2782 29.4212 43.2782 28.9545C43.2782 28.3479 43.5162 27.8579 43.9922 27.4845C44.4682 27.1112 45.1028 26.9245 45.8962 26.9245C46.3722 26.9245 46.8248 27.0039 47.2542 27.1625C47.6835 27.3119 48.0428 27.5312 48.3322 27.8205L47.9542 28.6465C47.3288 28.1145 46.6428 27.8485 45.8962 27.8485C45.4202 27.8485 45.0468 27.9419 44.7762 28.1285C44.5148 28.3059 44.3842 28.5579 44.3842 28.8845C44.3842 29.1552 44.4635 29.3745 44.6222 29.5425C44.7902 29.7012 45.0562 29.8225 45.4202 29.9065L46.5822 30.1865C47.2168 30.3359 47.6882 30.5645 47.9962 30.8725C48.3042 31.1712 48.4582 31.5632 48.4582 32.0485C48.4582 32.6459 48.2155 33.1219 47.7302 33.4765C47.2542 33.8312 46.6008 34.0085 45.7702 34.0085ZM59.8161 27.1065L55.7841 36.4305H54.6221L55.7701 33.8265L52.8861 27.1065H54.0901L56.3721 32.6785L58.6821 27.1065H59.8161ZM63.7335 34.0085C63.0895 34.0085 62.5201 33.8639 62.0255 33.5745C61.5401 33.2852 61.1621 32.8745 60.8915 32.3425C60.6301 31.8012 60.4995 31.1759 60.4995 30.4665C60.4995 29.7572 60.6301 29.1365 60.8915 28.6045C61.1621 28.0632 61.5401 27.6479 62.0255 27.3585C62.5201 27.0692 63.0895 26.9245 63.7335 26.9245C64.3775 26.9245 64.9468 27.0692 65.4415 27.3585C65.9361 27.6479 66.3141 28.0632 66.5755 28.6045C66.8461 29.1365 66.9815 29.7572 66.9815 30.4665C66.9815 31.1759 66.8461 31.8012 66.5755 32.3425C66.3141 32.8745 65.9361 33.2852 65.4415 33.5745C64.9468 33.8639 64.3775 34.0085 63.7335 34.0085ZM63.7335 33.0705C64.4055 33.0705 64.9188 32.8512 65.2735 32.4125C65.6375 31.9645 65.8195 31.3159 65.8195 30.4665C65.8195 29.6359 65.6375 28.9965 65.2735 28.5485C64.9095 28.0912 64.3961 27.8625 63.7335 27.8625C63.0708 27.8625 62.5575 28.0912 62.1935 28.5485C61.8295 28.9965 61.6475 29.6359 61.6475 30.4665C61.6475 31.3065 61.8248 31.9505 62.1795 32.3985C62.5435 32.8465 63.0615 33.0705 63.7335 33.0705ZM74.4111 27.0925V33.9105H73.3051V32.7485C73.0904 33.1592 72.7871 33.4719 72.3951 33.6865C72.0124 33.9012 71.5784 34.0085 71.0931 34.0085C70.2811 34.0085 69.6698 33.7845 69.2591 33.3365C68.8484 32.8792 68.6431 32.2072 68.6431 31.3205V27.0925H69.7771V31.2925C69.7771 31.8992 69.8984 32.3472 70.1411 32.6365C70.3838 32.9165 70.7664 33.0565 71.2891 33.0565C71.8864 33.0565 72.3671 32.8652 72.7311 32.4825C73.0951 32.0905 73.2771 31.5772 73.2771 30.9425V27.0925H74.4111ZM80.3828 27.9045L79.6408 27.9745C78.9408 28.0399 78.4321 28.2592 78.1148 28.6325C77.8068 29.0059 77.6528 29.4679 77.6528 30.0185V33.9105H76.5188V27.0925H77.6248V28.2825C78.0074 27.4892 78.7588 27.0459 79.8788 26.9525L80.2848 26.9245L80.3828 27.9045ZM88.4937 26.9245C90.127 26.9245 90.9437 27.8252 90.9437 29.6265V33.9105H89.8097V29.6965C89.8097 29.0619 89.6837 28.5999 89.4317 28.3105C89.189 28.0212 88.797 27.8765 88.2557 27.8765C87.6303 27.8765 87.131 28.0679 86.7577 28.4505C86.3843 28.8332 86.1977 29.3512 86.1977 30.0045V33.9105H85.0637V27.0925H86.1837V28.2125C86.4077 27.7925 86.7203 27.4752 87.1217 27.2605C87.523 27.0365 87.9803 26.9245 88.4937 26.9245ZM95.7927 26.9245C96.6607 26.9245 97.3047 27.1485 97.7247 27.5965C98.154 28.0352 98.3687 28.7072 98.3687 29.6125V33.9105H97.2627V32.7485C97.0854 33.1499 96.8147 33.4625 96.4507 33.6865C96.0867 33.9012 95.6667 34.0085 95.1907 34.0085C94.752 34.0085 94.346 33.9199 93.9727 33.7425C93.6087 33.5652 93.3194 33.3179 93.1047 33.0005C92.89 32.6832 92.7827 32.3332 92.7827 31.9505C92.7827 31.4372 92.9134 31.0405 93.1747 30.7605C93.436 30.4712 93.8654 30.2659 94.4627 30.1445C95.06 30.0139 95.8907 29.9485 96.9547 29.9485H97.2627V29.4865C97.2627 28.9172 97.146 28.5065 96.9127 28.2545C96.6794 27.9932 96.3014 27.8625 95.7787 27.8625C94.9947 27.8625 94.2154 28.1052 93.4407 28.5905L93.0627 27.7645C93.4174 27.5125 93.842 27.3119 94.3367 27.1625C94.8407 27.0039 95.326 26.9245 95.7927 26.9245ZM95.3447 33.1125C95.9047 33.1125 96.362 32.9259 96.7167 32.5525C97.0807 32.1699 97.2627 31.6799 97.2627 31.0825V30.6765H97.0107C96.1894 30.6765 95.564 30.7139 95.1347 30.7885C94.7054 30.8539 94.3974 30.9705 94.2107 31.1385C94.0334 31.2972 93.9447 31.5352 93.9447 31.8525C93.9447 32.2165 94.0754 32.5199 94.3367 32.7625C94.6074 32.9959 94.9434 33.1125 95.3447 33.1125ZM108.033 26.9245C109.545 26.9245 110.301 27.8252 110.301 29.6265V33.9105H109.167V29.6825C109.167 29.0572 109.055 28.5999 108.831 28.3105C108.616 28.0212 108.266 27.8765 107.781 27.8765C107.211 27.8765 106.763 28.0679 106.437 28.4505C106.11 28.8332 105.947 29.3559 105.947 30.0185V33.9105H104.813V29.6825C104.813 29.0479 104.701 28.5905 104.477 28.3105C104.253 28.0212 103.898 27.8765 103.413 27.8765C102.843 27.8765 102.395 28.0679 102.069 28.4505C101.742 28.8332 101.579 29.3559 101.579 30.0185V33.9105H100.445V27.0925H101.565V28.1705C101.77 27.7692 102.055 27.4612 102.419 27.2465C102.783 27.0319 103.203 26.9245 103.679 26.9245C104.733 26.9245 105.429 27.3725 105.765 28.2685C105.961 27.8485 106.259 27.5219 106.661 27.2885C107.062 27.0459 107.519 26.9245 108.033 26.9245ZM118.078 30.6765H113.094C113.132 31.4699 113.346 32.0719 113.738 32.4825C114.13 32.8839 114.686 33.0845 115.404 33.0845C116.198 33.0845 116.926 32.8139 117.588 32.2725L117.966 33.0985C117.668 33.3785 117.285 33.6025 116.818 33.7705C116.352 33.9292 115.876 34.0085 115.39 34.0085C114.326 34.0085 113.486 33.6959 112.87 33.0705C112.264 32.4452 111.96 31.5819 111.96 30.4805C111.96 29.7805 112.096 29.1645 112.366 28.6325C112.637 28.0912 113.015 27.6712 113.5 27.3725C113.995 27.0739 114.555 26.9245 115.18 26.9245C116.086 26.9245 116.795 27.2232 117.308 27.8205C117.822 28.4085 118.078 29.2205 118.078 30.2565V30.6765ZM115.194 27.8065C114.597 27.8065 114.116 27.9932 113.752 28.3665C113.398 28.7399 113.188 29.2672 113.122 29.9485H117.084C117.066 29.2579 116.893 28.7305 116.566 28.3665C116.24 27.9932 115.782 27.8065 115.194 27.8065ZM121.009 27.0925V28.5345H119.581V27.0925H121.009ZM121.009 32.4825V33.9105H119.581V32.4825H121.009Z" fill="#363636"/>
<path d="M8.476 4.74552V13.9105H7.657L2.132 6.53952V13.9105H1.131V4.74552H1.95L7.475 12.1165V4.74552H8.476ZM13.1594 7.42352C13.9654 7.42352 14.5634 7.63152 14.9534 8.04752C15.352 8.45486 15.5514 9.07886 15.5514 9.91952V13.9105H14.5244V12.8315C14.3597 13.2042 14.1084 13.4945 13.7704 13.7025C13.4324 13.9019 13.0424 14.0015 12.6004 14.0015C12.193 14.0015 11.816 13.9192 11.4694 13.7545C11.1314 13.5899 10.8627 13.3602 10.6634 13.0655C10.464 12.7709 10.3644 12.4459 10.3644 12.0905C10.3644 11.6139 10.4857 11.2455 10.7284 10.9855C10.971 10.7169 11.3697 10.5262 11.9244 10.4135C12.479 10.2922 13.2504 10.2315 14.2384 10.2315H14.5244V9.80252C14.5244 9.27386 14.416 8.89252 14.1994 8.65852C13.9827 8.41586 13.6317 8.29452 13.1464 8.29452C12.4184 8.29452 11.6947 8.51986 10.9754 8.97052L10.6244 8.20352C10.9537 7.96952 11.348 7.78319 11.8074 7.64452C12.2754 7.49719 12.726 7.42352 13.1594 7.42352ZM12.7434 13.1695C13.2634 13.1695 13.688 12.9962 14.0174 12.6495C14.3554 12.2942 14.5244 11.8392 14.5244 11.2845V10.9075H14.2904C13.5277 10.9075 12.947 10.9422 12.5484 11.0115C12.1497 11.0722 11.8637 11.1805 11.6904 11.3365C11.5257 11.4839 11.4434 11.7049 11.4434 11.9995C11.4434 12.3375 11.5647 12.6192 11.8074 12.8445C12.0587 13.0612 12.3707 13.1695 12.7434 13.1695ZM24.5249 7.42352C25.9289 7.42352 26.6309 8.25986 26.6309 9.93252V13.9105H25.5779V9.98452C25.5779 9.40386 25.4739 8.97919 25.2659 8.71052C25.0666 8.44186 24.7416 8.30752 24.2909 8.30752C23.7622 8.30752 23.3462 8.48519 23.0429 8.84052C22.7396 9.19586 22.5879 9.68119 22.5879 10.2965V13.9105H21.5349V9.98452C21.5349 9.39519 21.4309 8.97052 21.2229 8.71052C21.0149 8.44186 20.6856 8.30752 20.2349 8.30752C19.7062 8.30752 19.2902 8.48519 18.9869 8.84052C18.6836 9.19586 18.5319 9.68119 18.5319 10.2965V13.9105H17.4789V7.57952H18.5189V8.58052C18.7096 8.20786 18.9739 7.92186 19.3119 7.72252C19.6499 7.52319 20.0399 7.42352 20.4819 7.42352C21.4612 7.42352 22.1069 7.83952 22.4189 8.67152C22.6009 8.28152 22.8782 7.97819 23.2509 7.76152C23.6236 7.53619 24.0482 7.42352 24.5249 7.42352ZM33.8532 10.9075H29.2252C29.2599 11.6442 29.4592 12.2032 29.8232 12.5845C30.1872 12.9572 30.7029 13.1435 31.3702 13.1435C32.1069 13.1435 32.7829 12.8922 33.3982 12.3895L33.7492 13.1565C33.4719 13.4165 33.1166 13.6245 32.6832 13.7805C32.2499 13.9279 31.8079 14.0015 31.3572 14.0015C30.3692 14.0015 29.5892 13.7112 29.0172 13.1305C28.4539 12.5499 28.1722 11.7482 28.1722 10.7255C28.1722 10.0755 28.2979 9.50352 28.5492 9.00952C28.8006 8.50686 29.1516 8.11686 29.6022 7.83952C30.0616 7.56219 30.5816 7.42352 31.1622 7.42352C32.0029 7.42352 32.6616 7.70086 33.1382 8.25552C33.6149 8.80152 33.8532 9.55552 33.8532 10.5175V10.9075ZM31.1752 8.24252C30.6206 8.24252 30.1742 8.41586 29.8362 8.76252C29.5069 9.10919 29.3119 9.59886 29.2512 10.2315H32.9302C32.9129 9.59019 32.7526 9.10052 32.4492 8.76252C32.1459 8.41586 31.7212 8.24252 31.1752 8.24252Z" fill="#363636" fill-opacity="0.5"/>
</svg>
