<svg width="232" height="46" viewBox="0 0 232 46" fill="none" xmlns="http://www.w3.org/2000/svg">
<rect x="0.25" y="-0.25" width="230.5" height="0.5" transform="matrix(1 0 0 -1 1.00004 45.4105)" stroke="#363636" stroke-opacity="0.3" stroke-width="0.5"/>
<path d="M5.77404 29.2486V33.9106H4.62604V29.2346L0.748038 24.0406H2.07804L5.21404 28.2966L8.35004 24.0406H9.65204L5.77404 29.2486ZM12.2198 34.0086C11.5758 34.0086 11.0065 33.864 10.5118 33.5746C10.0265 33.2853 9.6485 32.8746 9.37784 32.3426C9.1165 31.8013 8.98584 31.176 8.98584 30.4666C8.98584 29.7573 9.1165 29.1366 9.37784 28.6046C9.6485 28.0633 10.0265 27.648 10.5118 27.3586C11.0065 27.0693 11.5758 26.9246 12.2198 26.9246C12.8638 26.9246 13.4332 27.0693 13.9278 27.3586C14.4225 27.648 14.8005 28.0633 15.0618 28.6046C15.3325 29.1366 15.4678 29.7573 15.4678 30.4666C15.4678 31.176 15.3325 31.8013 15.0618 32.3426C14.8005 32.8746 14.4225 33.2853 13.9278 33.5746C13.4332 33.864 12.8638 34.0086 12.2198 34.0086ZM12.2198 33.0706C12.8918 33.0706 13.4052 32.8513 13.7598 32.4126C14.1238 31.9646 14.3058 31.316 14.3058 30.4666C14.3058 29.636 14.1238 28.9966 13.7598 28.5486C13.3958 28.0913 12.8825 27.8626 12.2198 27.8626C11.5572 27.8626 11.0438 28.0913 10.6798 28.5486C10.3158 28.9966 10.1338 29.636 10.1338 30.4666C10.1338 31.3066 10.3112 31.9506 10.6658 32.3986C11.0298 32.8466 11.5478 33.0706 12.2198 33.0706ZM22.8975 27.0926V33.9106H21.7915V32.7486C21.5768 33.1593 21.2735 33.472 20.8815 33.6866C20.4988 33.9013 20.0648 34.0086 19.5795 34.0086C18.7675 34.0086 18.1561 33.7846 17.7455 33.3366C17.3348 32.8793 17.1295 32.2073 17.1295 31.3206V27.0926H18.2635V31.2926C18.2635 31.8993 18.3848 32.3473 18.6275 32.6366C18.8701 32.9166 19.2528 33.0566 19.7755 33.0566C20.3728 33.0566 20.8535 32.8653 21.2175 32.4826C21.5815 32.0906 21.7635 31.5773 21.7635 30.9426V27.0926H22.8975ZM28.8691 27.9046L28.1271 27.9746C27.4271 28.04 26.9184 28.2593 26.6011 28.6326C26.2931 29.006 26.1391 29.468 26.1391 30.0186V33.9106H25.0051V27.0926H26.1111V28.2826C26.4938 27.4893 27.2451 27.046 28.3651 26.9526L28.7711 26.9246L28.8691 27.9046ZM36.98 26.9246C37.5774 26.9246 38.1047 27.074 38.562 27.3726C39.0194 27.6713 39.374 28.0913 39.626 28.6326C39.878 29.1646 40.004 29.7853 40.004 30.4946C40.004 31.204 39.878 31.8246 39.626 32.3566C39.374 32.8793 39.0194 33.2853 38.562 33.5746C38.114 33.864 37.5867 34.0086 36.98 34.0086C36.448 34.0086 35.9814 33.892 35.58 33.6586C35.188 33.4253 34.8894 33.094 34.684 32.6646V36.4306H33.55V27.0926H34.684V28.2686C34.8894 27.8393 35.188 27.508 35.58 27.2746C35.9814 27.0413 36.448 26.9246 36.98 26.9246ZM36.756 33.0706C37.4187 33.0706 37.932 32.8466 38.296 32.3986C38.66 31.9506 38.842 31.316 38.842 30.4946C38.842 29.6733 38.66 29.034 38.296 28.5766C37.932 28.11 37.4187 27.8766 36.756 27.8766C36.0934 27.8766 35.58 28.1006 35.216 28.5486C34.8614 28.9966 34.684 29.636 34.684 30.4666C34.684 31.2973 34.8614 31.9413 35.216 32.3986C35.58 32.8466 36.0934 33.0706 36.756 33.0706ZM45.1285 26.9246C46.7618 26.9246 47.5785 27.8253 47.5785 29.6266V33.9106H46.4445V29.6966C46.4445 29.062 46.3185 28.6 46.0665 28.3106C45.8238 28.0213 45.4318 27.8766 44.8905 27.8766C44.2651 27.8766 43.7658 28.068 43.3925 28.4506C43.0191 28.8333 42.8325 29.3513 42.8325 30.0046V33.9106H41.6985V24.0406H42.8325V28.1846C43.0565 27.774 43.3645 27.4613 43.7565 27.2466C44.1578 27.032 44.6151 26.9246 45.1285 26.9246ZM52.4835 34.0086C51.8395 34.0086 51.2702 33.864 50.7755 33.5746C50.2902 33.2853 49.9122 32.8746 49.6415 32.3426C49.3802 31.8013 49.2495 31.176 49.2495 30.4666C49.2495 29.7573 49.3802 29.1366 49.6415 28.6046C49.9122 28.0633 50.2902 27.648 50.7755 27.3586C51.2702 27.0693 51.8395 26.9246 52.4835 26.9246C53.1275 26.9246 53.6968 27.0693 54.1915 27.3586C54.6862 27.648 55.0642 28.0633 55.3255 28.6046C55.5962 29.1366 55.7315 29.7573 55.7315 30.4666C55.7315 31.176 55.5962 31.8013 55.3255 32.3426C55.0642 32.8746 54.6862 33.2853 54.1915 33.5746C53.6968 33.864 53.1275 34.0086 52.4835 34.0086ZM52.4835 33.0706C53.1555 33.0706 53.6688 32.8513 54.0235 32.4126C54.3875 31.9646 54.5695 31.316 54.5695 30.4666C54.5695 29.636 54.3875 28.9966 54.0235 28.5486C53.6595 28.0913 53.1462 27.8626 52.4835 27.8626C51.8208 27.8626 51.3075 28.0913 50.9435 28.5486C50.5795 28.9966 50.3975 29.636 50.3975 30.4666C50.3975 31.3066 50.5748 31.9506 50.9295 32.3986C51.2935 32.8466 51.8115 33.0706 52.4835 33.0706ZM60.8511 26.9246C62.4845 26.9246 63.3011 27.8253 63.3011 29.6266V33.9106H62.1671V29.6966C62.1671 29.062 62.0411 28.6 61.7891 28.3106C61.5465 28.0213 61.1545 27.8766 60.6131 27.8766C59.9878 27.8766 59.4885 28.068 59.1151 28.4506C58.7418 28.8333 58.5551 29.3513 58.5551 30.0046V33.9106H57.4211V27.0926H58.5411V28.2126C58.7651 27.7926 59.0778 27.4753 59.4791 27.2606C59.8805 27.0366 60.3378 26.9246 60.8511 26.9246ZM71.0902 30.6766H66.1062C66.1435 31.47 66.3582 32.072 66.7502 32.4826C67.1422 32.884 67.6975 33.0846 68.4162 33.0846C69.2095 33.0846 69.9375 32.814 70.6002 32.2726L70.9782 33.0986C70.6795 33.3786 70.2968 33.6026 69.8302 33.7706C69.3635 33.9293 68.8875 34.0086 68.4022 34.0086C67.3382 34.0086 66.4982 33.696 65.8822 33.0706C65.2755 32.4453 64.9722 31.582 64.9722 30.4806C64.9722 29.7806 65.1075 29.1646 65.3782 28.6326C65.6488 28.0913 66.0268 27.6713 66.5122 27.3726C67.0068 27.074 67.5668 26.9246 68.1922 26.9246C69.0975 26.9246 69.8068 27.2233 70.3202 27.8206C70.8335 28.4086 71.0902 29.2206 71.0902 30.2566V30.6766ZM68.2062 27.8066C67.6088 27.8066 67.1282 27.9933 66.7642 28.3666C66.4095 28.74 66.1995 29.2673 66.1342 29.9486H70.0962C70.0775 29.258 69.9048 28.7306 69.5782 28.3666C69.2515 27.9933 68.7942 27.8066 68.2062 27.8066ZM79.8004 26.9246C81.4337 26.9246 82.2504 27.8253 82.2504 29.6266V33.9106H81.1164V29.6966C81.1164 29.062 80.9904 28.6 80.7384 28.3106C80.4957 28.0213 80.1037 27.8766 79.5624 27.8766C78.937 27.8766 78.4377 28.068 78.0644 28.4506C77.691 28.8333 77.5044 29.3513 77.5044 30.0046V33.9106H76.3704V27.0926H77.4904V28.2126C77.7144 27.7926 78.027 27.4753 78.4284 27.2606C78.8297 27.0366 79.287 26.9246 79.8004 26.9246ZM90.0674 27.0926V33.9106H88.9614V32.7486C88.7467 33.1593 88.4434 33.472 88.0514 33.6866C87.6687 33.9013 87.2347 34.0086 86.7494 34.0086C85.9374 34.0086 85.326 33.7846 84.9154 33.3366C84.5047 32.8793 84.2994 32.2073 84.2994 31.3206V27.0926H85.4334V31.2926C85.4334 31.8993 85.5547 32.3473 85.7974 32.6366C86.04 32.9166 86.4227 33.0566 86.9454 33.0566C87.5427 33.0566 88.0234 32.8653 88.3874 32.4826C88.7514 32.0906 88.9334 31.5773 88.9334 30.9426V27.0926H90.0674ZM99.763 26.9246C101.275 26.9246 102.031 27.8253 102.031 29.6266V33.9106H100.897V29.6826C100.897 29.0573 100.785 28.6 100.561 28.3106C100.346 28.0213 99.9964 27.8766 99.511 27.8766C98.9417 27.8766 98.4937 28.068 98.167 28.4506C97.8404 28.8333 97.677 29.356 97.677 30.0186V33.9106H96.543V29.6826C96.543 29.048 96.431 28.5906 96.207 28.3106C95.983 28.0213 95.6284 27.8766 95.143 27.8766C94.5737 27.8766 94.1257 28.068 93.799 28.4506C93.4724 28.8333 93.309 29.356 93.309 30.0186V33.9106H92.175V27.0926H93.295V28.1706C93.5004 27.7693 93.785 27.4613 94.149 27.2466C94.513 27.032 94.933 26.9246 95.409 26.9246C96.4637 26.9246 97.159 27.3726 97.495 28.2686C97.691 27.8486 97.9897 27.522 98.391 27.2886C98.7924 27.046 99.2497 26.9246 99.763 26.9246ZM107.527 26.9246C108.124 26.9246 108.652 27.0693 109.109 27.3586C109.566 27.648 109.921 28.0586 110.173 28.5906C110.425 29.1226 110.551 29.7386 110.551 30.4386C110.551 31.148 110.425 31.7733 110.173 32.3146C109.921 32.8466 109.566 33.262 109.109 33.5606C108.652 33.8593 108.124 34.0086 107.527 34.0086C106.995 34.0086 106.528 33.892 106.127 33.6586C105.735 33.4253 105.436 33.094 105.231 32.6646V33.9106H104.097V24.0406H105.231V28.2686C105.436 27.8393 105.735 27.508 106.127 27.2746C106.528 27.0413 106.995 26.9246 107.527 26.9246ZM107.303 33.0706C107.966 33.0706 108.479 32.842 108.843 32.3846C109.207 31.918 109.389 31.2693 109.389 30.4386C109.389 29.6266 109.207 28.9966 108.843 28.5486C108.479 28.1006 107.966 27.8766 107.303 27.8766C106.64 27.8766 106.127 28.1006 105.763 28.5486C105.408 28.9966 105.231 29.636 105.231 30.4666C105.231 31.2973 105.408 31.9413 105.763 32.3986C106.127 32.8466 106.64 33.0706 107.303 33.0706ZM117.957 30.6766H112.973C113.011 31.47 113.225 32.072 113.617 32.4826C114.009 32.884 114.565 33.0846 115.283 33.0846C116.077 33.0846 116.805 32.814 117.467 32.2726L117.845 33.0986C117.547 33.3786 117.164 33.6026 116.697 33.7706C116.231 33.9293 115.755 34.0086 115.269 34.0086C114.205 34.0086 113.365 33.696 112.749 33.0706C112.143 32.4453 111.839 31.582 111.839 30.4806C111.839 29.7806 111.975 29.1646 112.245 28.6326C112.516 28.0913 112.894 27.6713 113.379 27.3726C113.874 27.074 114.434 26.9246 115.059 26.9246C115.965 26.9246 116.674 27.2233 117.187 27.8206C117.701 28.4086 117.957 29.2206 117.957 30.2566V30.6766ZM115.073 27.8066C114.476 27.8066 113.995 27.9933 113.631 28.3666C113.277 28.74 113.067 29.2673 113.001 29.9486H116.963C116.945 29.258 116.772 28.7306 116.445 28.3666C116.119 27.9933 115.661 27.8066 115.073 27.8066ZM123.492 27.9046L122.75 27.9746C122.05 28.04 121.541 28.2593 121.224 28.6326C120.916 29.006 120.762 29.468 120.762 30.0186V33.9106H119.628V27.0926H120.734V28.2826C121.117 27.4893 121.868 27.046 122.988 26.9526L123.394 26.9246L123.492 27.9046ZM126.001 27.0926V28.5346H124.573V27.0926H126.001ZM126.001 32.4826V33.9106H124.573V32.4826H126.001Z" fill="#363636"/>
<path d="M2.12845 4.77274L5.75545 4.76842C6.71745 4.76727 7.46306 5.00039 7.99229 5.46776C8.53018 5.93512 8.79963 6.5978 8.80065 7.4558C8.80167 8.3138 8.5338 8.98145 7.99704 9.45875C7.46027 9.93606 6.71522 10.1753 5.76189 10.1764L3.20089 10.1795L3.20536 13.9365L2.13936 13.9377L2.12845 4.77274ZM5.65684 9.29254C7.05217 9.29088 7.74911 8.67905 7.74765 7.45705C7.74622 6.25238 7.04784 5.65088 5.6525 5.65254L3.19551 5.65547L3.19984 9.29547L5.65684 9.29254ZM13.5395 7.43716C15.0562 7.43535 15.8155 8.27078 15.8175 9.94345L15.8223 13.9214L14.7693 13.9227L14.7646 10.0097C14.7639 9.42037 14.6464 8.99151 14.4121 8.72312C14.1864 8.45472 13.8223 8.32082 13.3196 8.32142C12.7389 8.32211 12.2755 8.50033 11.9292 8.85607C11.583 9.21182 11.4102 9.69303 11.4109 10.2997L11.4153 13.9267L10.3623 13.9279L10.3514 4.76295L11.4044 4.76169L11.4089 8.60969C11.6165 8.22811 11.9021 7.93744 12.2659 7.73767C12.6383 7.53789 13.0629 7.43772 13.5395 7.43716ZM20.377 14.007C19.779 14.0077 19.2502 13.874 18.7906 13.6059C18.3396 13.3378 17.9881 12.9569 17.7362 12.4632C17.4929 11.9608 17.3709 11.3803 17.3701 10.7216C17.3693 10.0629 17.49 9.48645 17.7321 8.99217C17.9828 8.4892 18.3333 8.10312 18.7837 7.83391C19.2427 7.5647 19.7712 7.42974 20.3692 7.42902C20.9672 7.42831 21.496 7.56202 21.9557 7.83014C22.4153 8.09826 22.7668 8.4835 23.0101 8.98588C23.262 9.47958 23.3883 10.0558 23.3891 10.7144C23.3899 11.3731 23.2649 11.9539 23.0142 12.4569C22.7721 12.9512 22.4216 13.3329 21.9626 13.6021C21.5035 13.8713 20.975 14.0063 20.377 14.007ZM20.376 13.136C21 13.1353 21.4764 12.931 21.8053 12.5233C22.1428 12.1069 22.3111 11.5044 22.3101 10.7157C22.3092 9.94438 22.1395 9.35092 21.801 8.93532C21.4625 8.51106 20.9856 8.29929 20.3702 8.30002C19.7549 8.30076 19.2785 8.51366 18.941 8.93873C18.6035 9.35513 18.4352 9.949 18.4361 10.7203C18.4371 11.5003 18.6024 12.0981 18.9323 12.5137C19.2708 12.9293 19.752 13.1368 20.376 13.136ZM28.1391 7.41978C29.6558 7.41797 30.4151 8.2534 30.4171 9.92607L30.4219 13.9041L29.3689 13.9053L29.3642 9.99232C29.3635 9.40299 29.246 8.97413 29.0117 8.70574C28.786 8.43734 28.4219 8.30344 27.9192 8.30404C27.3385 8.30473 26.8751 8.48295 26.5288 8.83869C26.1826 9.19444 26.0098 9.67565 26.0105 10.2823L26.0149 13.9093L24.9619 13.9106L24.9543 7.57957L25.9943 7.57833L25.9956 8.61833C26.2031 8.22808 26.4931 7.93307 26.8655 7.73329C27.2379 7.52485 27.6625 7.42034 28.1391 7.41978ZM37.651 10.8925L33.023 10.898C33.0585 11.6346 33.2585 12.1934 33.623 12.5743C33.9874 12.9465 34.5033 13.1322 35.1706 13.1314C35.9073 13.1305 36.583 12.8784 37.1977 12.375L37.5496 13.1416C37.2726 13.4019 36.9175 13.6103 36.4844 13.7668C36.0512 13.9147 35.6093 13.9889 35.1586 13.9894C34.1706 13.9906 33.3903 13.7012 32.8176 13.1212C32.2536 12.5412 31.971 11.7399 31.9697 10.7172C31.969 10.0672 32.094 9.49507 32.3447 9.00077C32.5954 8.4978 32.946 8.10739 33.3963 7.82952C33.8553 7.55164 34.3751 7.41235 34.9558 7.41166C35.7965 7.41066 36.4555 7.68721 36.9328 8.24131C37.4101 8.78674 37.6493 9.54046 37.6505 10.5025L37.651 10.8925ZM34.9698 8.23064C34.4151 8.2313 33.969 8.40517 33.6314 8.75224C33.3025 9.0993 33.1081 9.58919 33.0482 10.2219L36.7271 10.2176C36.7091 9.57624 36.5481 9.08677 36.2444 8.74913C35.9407 8.40282 35.5158 8.22999 34.9698 8.23064Z" fill="#363636" fill-opacity="0.5"/>
</svg>
