<svg width="193" height="173" viewBox="0 0 193 173" fill="none" xmlns="http://www.w3.org/2000/svg">
<path d="M2.40576 8.85576C1.98976 8.85576 1.59976 8.75609 1.23576 8.55676C0.871756 8.34876 0.581423 8.07142 0.364756 7.72476C0.156756 7.36942 0.0527559 6.97942 0.0527559 6.55476C0.0527559 6.15609 0.152423 5.77909 0.351756 5.42376C0.559756 5.06842 0.841423 4.78242 1.19676 4.56576C1.56076 4.34909 1.96376 4.24076 2.40576 4.24076C2.82176 4.24076 3.20742 4.34476 3.56276 4.55276C3.92676 4.75209 4.21709 5.02942 4.43376 5.38476C4.65042 5.73142 4.75876 6.12142 4.75876 6.55476C4.75876 6.97076 4.65042 7.35642 4.43376 7.71176C4.22576 8.05842 3.93976 8.33576 3.57576 8.54376C3.22042 8.75176 2.83042 8.85576 2.40576 8.85576ZM10.2997 0.834755H13.3807C14.8454 0.834755 15.9764 1.23342 16.7737 2.03076C17.5797 2.81942 17.9827 3.94609 17.9827 5.41076C17.9827 6.87542 17.5797 8.00642 16.7737 8.80376C15.9764 9.60109 14.8454 9.99976 13.3807 9.99976H10.2997V0.834755ZM13.3157 9.08976C15.6904 9.08976 16.8777 7.86342 16.8777 5.41076C16.8777 2.96676 15.6904 1.74476 13.3157 1.74476H11.3657V9.08976H13.3157ZM19.7541 3.66876H20.8071V9.99976H19.7541V3.66876ZM20.9241 0.925756V2.10876H19.6501V0.925756H20.9241ZM24.9205 10.0908C23.8545 10.0908 23.0095 9.81776 22.3855 9.27176L22.7365 8.49176C23.0745 8.76042 23.4169 8.95542 23.7635 9.07676C24.1189 9.18942 24.5175 9.24576 24.9595 9.24576C25.4275 9.24576 25.7829 9.16776 26.0255 9.01176C26.2769 8.84709 26.4025 8.61309 26.4025 8.30976C26.4025 8.05842 26.3202 7.85909 26.1555 7.71176C25.9909 7.56442 25.7179 7.44742 25.3365 7.36076L24.2705 7.11376C23.7332 6.99242 23.3215 6.78442 23.0355 6.48976C22.7495 6.19509 22.6065 5.83109 22.6065 5.39776C22.6065 4.83442 22.8275 4.37942 23.2695 4.03276C23.7115 3.68609 24.3009 3.51276 25.0375 3.51276C25.4795 3.51276 25.8999 3.58642 26.2985 3.73376C26.6972 3.87242 27.0309 4.07609 27.2995 4.34476L26.9485 5.11176C26.3679 4.61776 25.7309 4.37076 25.0375 4.37076C24.5955 4.37076 24.2489 4.45742 23.9975 4.63076C23.7549 4.79542 23.6335 5.02942 23.6335 5.33276C23.6335 5.58409 23.7072 5.78776 23.8545 5.94376C24.0105 6.09109 24.2575 6.20376 24.5955 6.28176L25.6745 6.54176C26.2639 6.68042 26.7015 6.89276 26.9875 7.17876C27.2735 7.45609 27.4165 7.82009 27.4165 8.27076C27.4165 8.82542 27.1912 9.26742 26.7405 9.59676C26.2985 9.92609 25.6919 10.0908 24.9205 10.0908ZM36.0676 3.51276C37.4716 3.51276 38.1736 4.34909 38.1736 6.02176V9.99976H37.1206V6.07376C37.1206 5.49309 37.0166 5.06842 36.8086 4.79976C36.6093 4.53109 36.2843 4.39676 35.8336 4.39676C35.305 4.39676 34.889 4.57442 34.5856 4.92976C34.2823 5.28509 34.1306 5.77042 34.1306 6.38576V9.99976H33.0776V6.07376C33.0776 5.48442 32.9736 5.05976 32.7656 4.79976C32.5576 4.53109 32.2283 4.39676 31.7776 4.39676C31.249 4.39676 30.833 4.57442 30.5296 4.92976C30.2263 5.28509 30.0746 5.77042 30.0746 6.38576V9.99976H29.0216V3.66876H30.0616V4.66976C30.2523 4.29709 30.5166 4.01109 30.8546 3.81176C31.1926 3.61242 31.5826 3.51276 32.0246 3.51276C33.004 3.51276 33.6496 3.92876 33.9616 4.76076C34.1436 4.37076 34.421 4.06742 34.7936 3.85076C35.1663 3.62542 35.591 3.51276 36.0676 3.51276ZM42.6659 3.51276C43.4719 3.51276 44.0699 3.72076 44.4599 4.13676C44.8586 4.54409 45.0579 5.16809 45.0579 6.00876V9.99976H44.0309V8.92076C43.8663 9.29342 43.6149 9.58376 43.2769 9.79176C42.9389 9.99109 42.5489 10.0908 42.1069 10.0908C41.6996 10.0908 41.3226 10.0084 40.9759 9.84376C40.6379 9.67909 40.3693 9.44942 40.1699 9.15476C39.9706 8.86009 39.8709 8.53509 39.8709 8.17976C39.8709 7.70309 39.9923 7.33476 40.2349 7.07476C40.4776 6.80609 40.8763 6.61542 41.4309 6.50276C41.9856 6.38142 42.7569 6.32076 43.7449 6.32076H44.0309V5.89176C44.0309 5.36309 43.9226 4.98176 43.7059 4.74776C43.4893 4.50509 43.1383 4.38376 42.6529 4.38376C41.9249 4.38376 41.2013 4.60909 40.4819 5.05976L40.1309 4.29276C40.4603 4.05876 40.8546 3.87242 41.3139 3.73376C41.7819 3.58642 42.2326 3.51276 42.6659 3.51276ZM42.2499 9.25876C42.7699 9.25876 43.1946 9.08542 43.5239 8.73876C43.8619 8.38342 44.0309 7.92842 44.0309 7.37376V6.99676H43.7969C43.0343 6.99676 42.4536 7.03142 42.0549 7.10076C41.6563 7.16142 41.3703 7.26976 41.1969 7.42576C41.0323 7.57309 40.9499 7.79409 40.9499 8.08876C40.9499 8.42676 41.0713 8.70842 41.3139 8.93376C41.5653 9.15042 41.8773 9.25876 42.2499 9.25876ZM50.1705 3.51276C51.6872 3.51276 52.4455 4.34909 52.4455 6.02176V9.99976H51.3925V6.08676C51.3925 5.49742 51.2755 5.06842 51.0415 4.79976C50.8162 4.53109 50.4522 4.39676 49.9495 4.39676C49.3688 4.39676 48.9052 4.57442 48.5585 4.92976C48.2118 5.28509 48.0385 5.76609 48.0385 6.37276V9.99976H46.9855V3.66876H48.0255V4.70876C48.2335 4.31876 48.5238 4.02409 48.8965 3.82476C49.2692 3.61676 49.6938 3.51276 50.1705 3.51276ZM57.1562 9.24576C57.3468 9.24576 57.5375 9.23276 57.7282 9.20676L57.6762 10.0388C57.4768 10.0734 57.2602 10.0908 57.0262 10.0908C56.2635 10.0908 55.6872 9.89142 55.2972 9.49276C54.9158 9.09409 54.7252 8.53942 54.7252 7.82876V4.50076H53.4902V3.66876H54.7252V1.74476H55.7782V3.66876H57.5722V4.50076H55.7782V7.75076C55.7782 8.74742 56.2375 9.24576 57.1562 9.24576ZM58.7921 0.834755H59.8451V9.99976H58.7921V0.834755ZM61.8136 3.66876H62.8666V9.99976H61.8136V3.66876ZM62.9836 0.925756V2.10876H61.7096V0.925756H62.9836ZM68.0201 3.51276C69.5368 3.51276 70.2951 4.34909 70.2951 6.02176V9.99976H69.2421V6.08676C69.2421 5.49742 69.1251 5.06842 68.8911 4.79976C68.6658 4.53109 68.3018 4.39676 67.7991 4.39676C67.2184 4.39676 66.7548 4.57442 66.4081 4.92976C66.0614 5.28509 65.8881 5.76609 65.8881 6.37276V9.99976H64.8351V3.66876H65.8751V4.70876C66.0831 4.31876 66.3734 4.02409 66.7461 3.82476C67.1188 3.61676 67.5434 3.51276 68.0201 3.51276ZM77.8918 3.66876V9.57076C77.8918 10.5154 77.6491 11.2261 77.1638 11.7028C76.6784 12.1881 75.9591 12.4308 75.0058 12.4308C73.8964 12.4308 72.9648 12.1448 72.2108 11.5728L72.5618 10.7928C72.9864 11.0701 73.3851 11.2694 73.7578 11.3908C74.1304 11.5121 74.5464 11.5728 75.0058 11.5728C75.6124 11.5728 76.0718 11.4081 76.3838 11.0788C76.6958 10.7581 76.8518 10.2858 76.8518 9.66176V8.54376C76.6698 8.95109 76.3881 9.26309 76.0068 9.47976C75.6341 9.69642 75.1921 9.80476 74.6808 9.80476C74.1261 9.80476 73.6321 9.67476 73.1988 9.41476C72.7741 9.15476 72.4404 8.78642 72.1978 8.30976C71.9638 7.83309 71.8468 7.28276 71.8468 6.65876C71.8468 6.03476 71.9638 5.48442 72.1978 5.00776C72.4404 4.53109 72.7741 4.16276 73.1988 3.90276C73.6321 3.64276 74.1261 3.51276 74.6808 3.51276C75.1834 3.51276 75.6211 3.62109 75.9938 3.83776C76.3664 4.05442 76.6481 4.36209 76.8388 4.76076V3.66876H77.8918ZM74.8888 8.93376C75.4954 8.93376 75.9721 8.73442 76.3188 8.33576C76.6654 7.92842 76.8388 7.36942 76.8388 6.65876C76.8388 5.95676 76.6654 5.40642 76.3188 5.00776C75.9808 4.60042 75.5041 4.39676 74.8888 4.39676C74.2734 4.39676 73.7881 4.60042 73.4328 5.00776C73.0861 5.40642 72.9128 5.95676 72.9128 6.65876C72.9128 7.36942 73.0861 7.92842 73.4328 8.33576C73.7881 8.73442 74.2734 8.93376 74.8888 8.93376ZM85.8185 10.0908C85.2205 10.0908 84.6919 9.95642 84.2325 9.68776C83.7819 9.41909 83.4309 9.03776 83.1795 8.54376C82.9369 8.04109 82.8155 7.46042 82.8155 6.80176C82.8155 6.14309 82.9369 5.56676 83.1795 5.07276C83.4309 4.57009 83.7819 4.18442 84.2325 3.91576C84.6919 3.64709 85.2205 3.51276 85.8185 3.51276C86.4165 3.51276 86.9452 3.64709 87.4045 3.91576C87.8639 4.18442 88.2149 4.57009 88.4575 5.07276C88.7089 5.56676 88.8345 6.14309 88.8345 6.80176C88.8345 7.46042 88.7089 8.04109 88.4575 8.54376C88.2149 9.03776 87.8639 9.41909 87.4045 9.68776C86.9452 9.95642 86.4165 10.0908 85.8185 10.0908ZM85.8185 9.21976C86.4425 9.21976 86.9192 9.01609 87.2485 8.60876C87.5865 8.19276 87.7555 7.59042 87.7555 6.80176C87.7555 6.03042 87.5865 5.43676 87.2485 5.02076C86.9105 4.59609 86.4339 4.38376 85.8185 4.38376C85.2032 4.38376 84.7265 4.59609 84.3885 5.02076C84.0505 5.43676 83.8815 6.03042 83.8815 6.80176C83.8815 7.58176 84.0462 8.17976 84.3755 8.59576C84.7135 9.01176 85.1945 9.21976 85.8185 9.21976ZM91.7948 3.66876H93.5888V4.50076H91.7948V9.99976H90.7418V4.50076H89.5068V3.66876H90.7418V3.46076C90.7418 2.62009 90.9498 1.98309 91.3658 1.54976C91.7904 1.11642 92.4404 0.873755 93.3158 0.821755L93.8358 0.795756L93.9138 1.61476L93.3158 1.65376C92.7871 1.68842 92.4014 1.84009 92.1588 2.10876C91.9161 2.36876 91.7948 2.77176 91.7948 3.31776V3.66876ZM100.634 10.0908C100.036 10.0908 99.5073 9.95642 99.048 9.68776C98.5973 9.41909 98.2463 9.03776 97.995 8.54376C97.7523 8.04109 97.631 7.46042 97.631 6.80176C97.631 6.14309 97.7523 5.56676 97.995 5.07276C98.2463 4.57009 98.5973 4.18442 99.048 3.91576C99.5073 3.64709 100.036 3.51276 100.634 3.51276C101.232 3.51276 101.761 3.64709 102.22 3.91576C102.679 4.18442 103.03 4.57009 103.273 5.07276C103.524 5.56676 103.65 6.14309 103.65 6.80176C103.65 7.46042 103.524 8.04109 103.273 8.54376C103.03 9.03776 102.679 9.41909 102.22 9.68776C101.761 9.95642 101.232 10.0908 100.634 10.0908ZM100.634 9.21976C101.258 9.21976 101.735 9.01609 102.064 8.60876C102.402 8.19276 102.571 7.59042 102.571 6.80176C102.571 6.03042 102.402 5.43676 102.064 5.02076C101.726 4.59609 101.249 4.38376 100.634 4.38376C100.019 4.38376 99.542 4.59609 99.204 5.02076C98.866 5.43676 98.697 6.03042 98.697 6.80176C98.697 7.58176 98.8616 8.17976 99.191 8.59576C99.529 9.01176 100.01 9.21976 100.634 9.21976ZM105.219 0.834755H106.272V9.99976H105.219V0.834755ZM113.856 0.834755V9.99976H112.803V8.84276C112.613 9.24142 112.331 9.54909 111.958 9.76576C111.594 9.98242 111.165 10.0908 110.671 10.0908C110.117 10.0908 109.627 9.95209 109.202 9.67476C108.778 9.39742 108.448 9.01176 108.214 8.51776C107.98 8.01509 107.863 7.43442 107.863 6.77576C107.863 6.12576 107.98 5.55376 108.214 5.05976C108.448 4.56576 108.778 4.18442 109.202 3.91576C109.627 3.64709 110.117 3.51276 110.671 3.51276C111.165 3.51276 111.594 3.62109 111.958 3.83776C112.331 4.05442 112.613 4.36209 112.803 4.76076V0.834755H113.856ZM110.879 9.21976C111.495 9.21976 111.967 9.01176 112.296 8.59576C112.634 8.17109 112.803 7.57309 112.803 6.80176C112.803 6.03042 112.634 5.43676 112.296 5.02076C111.967 4.60476 111.495 4.39676 110.879 4.39676C110.264 4.39676 109.783 4.60476 109.436 5.02076C109.098 5.43676 108.929 6.02176 108.929 6.77576C108.929 7.54709 109.098 8.14942 109.436 8.58276C109.783 9.00742 110.264 9.21976 110.879 9.21976ZM121.836 10.0908C121.212 10.0908 120.671 9.95642 120.211 9.68776C119.752 9.41909 119.397 9.04209 119.145 8.55676C118.903 8.06276 118.781 7.48642 118.781 6.82776C118.781 6.16909 118.907 5.59276 119.158 5.09876C119.418 4.59609 119.778 4.20609 120.237 3.92876C120.705 3.65142 121.251 3.51276 121.875 3.51276C122.3 3.51276 122.716 3.59076 123.123 3.74676C123.531 3.89409 123.86 4.09342 124.111 4.34476L123.76 5.12476C123.162 4.63942 122.556 4.39676 121.94 4.39676C121.29 4.39676 120.783 4.60909 120.419 5.03376C120.055 5.45842 119.873 6.05642 119.873 6.82776C119.873 7.59042 120.055 8.17976 120.419 8.59576C120.783 9.01176 121.29 9.21976 121.94 9.21976C122.556 9.21976 123.162 8.97709 123.76 8.49176L124.111 9.27176C123.843 9.52309 123.505 9.72242 123.097 9.86976C122.69 10.0171 122.27 10.0908 121.836 10.0908ZM128.005 10.0908C127.407 10.0908 126.878 9.95642 126.419 9.68776C125.968 9.41909 125.617 9.03776 125.366 8.54376C125.123 8.04109 125.002 7.46042 125.002 6.80176C125.002 6.14309 125.123 5.56676 125.366 5.07276C125.617 4.57009 125.968 4.18442 126.419 3.91576C126.878 3.64709 127.407 3.51276 128.005 3.51276C128.603 3.51276 129.132 3.64709 129.591 3.91576C130.05 4.18442 130.401 4.57009 130.644 5.07276C130.895 5.56676 131.021 6.14309 131.021 6.80176C131.021 7.46042 130.895 8.04109 130.644 8.54376C130.401 9.03776 130.05 9.41909 129.591 9.68776C129.132 9.95642 128.603 10.0908 128.005 10.0908ZM128.005 9.21976C128.629 9.21976 129.106 9.01609 129.435 8.60876C129.773 8.19276 129.942 7.59042 129.942 6.80176C129.942 6.03042 129.773 5.43676 129.435 5.02076C129.097 4.59609 128.62 4.38376 128.005 4.38376C127.39 4.38376 126.913 4.59609 126.575 5.02076C126.237 5.43676 126.068 6.03042 126.068 6.80176C126.068 7.58176 126.233 8.17976 126.562 8.59576C126.9 9.01176 127.381 9.21976 128.005 9.21976ZM135.164 3.51276C135.97 3.51276 136.568 3.72076 136.958 4.13676C137.357 4.54409 137.556 5.16809 137.556 6.00876V9.99976H136.529V8.92076C136.364 9.29342 136.113 9.58376 135.775 9.79176C135.437 9.99109 135.047 10.0908 134.605 10.0908C134.198 10.0908 133.821 10.0084 133.474 9.84376C133.136 9.67909 132.867 9.44942 132.668 9.15476C132.469 8.86009 132.369 8.53509 132.369 8.17976C132.369 7.70309 132.49 7.33476 132.733 7.07476C132.976 6.80609 133.374 6.61542 133.929 6.50276C134.484 6.38142 135.255 6.32076 136.243 6.32076H136.529V5.89176C136.529 5.36309 136.421 4.98176 136.204 4.74776C135.987 4.50509 135.636 4.38376 135.151 4.38376C134.423 4.38376 133.699 4.60909 132.98 5.05976L132.629 4.29276C132.958 4.05876 133.353 3.87242 133.812 3.73376C134.28 3.58642 134.731 3.51276 135.164 3.51276ZM134.748 9.25876C135.268 9.25876 135.693 9.08542 136.022 8.73876C136.36 8.38342 136.529 7.92842 136.529 7.37376V6.99676H136.295C135.532 6.99676 134.952 7.03142 134.553 7.10076C134.154 7.16142 133.868 7.26976 133.695 7.42576C133.53 7.57309 133.448 7.79409 133.448 8.08876C133.448 8.42676 133.569 8.70842 133.812 8.93376C134.063 9.15042 134.375 9.25876 134.748 9.25876ZM142.266 9.24576C142.456 9.24576 142.647 9.23276 142.838 9.20676L142.786 10.0388C142.586 10.0734 142.37 10.0908 142.136 10.0908C141.373 10.0908 140.797 9.89142 140.407 9.49276C140.025 9.09409 139.835 8.53942 139.835 7.82876V4.50076H138.6V3.66876H139.835V1.74476H140.888V3.66876H142.682V4.50076H140.888V7.75076C140.888 8.74742 141.347 9.24576 142.266 9.24576ZM143.902 3.66876H144.955V9.99976H143.902V3.66876ZM145.072 0.925756V2.10876H143.798V0.925756H145.072ZM150.108 3.51276C151.625 3.51276 152.383 4.34909 152.383 6.02176V9.99976H151.33V6.08676C151.33 5.49742 151.213 5.06842 150.979 4.79976C150.754 4.53109 150.39 4.39676 149.887 4.39676C149.306 4.39676 148.843 4.57442 148.496 4.92976C148.149 5.28509 147.976 5.76609 147.976 6.37276V9.99976H146.923V3.66876H147.963V4.70876C148.171 4.31876 148.461 4.02409 148.834 3.82476C149.207 3.61676 149.631 3.51276 150.108 3.51276ZM159.98 3.66876V9.57076C159.98 10.5154 159.737 11.2261 159.252 11.7028C158.766 12.1881 158.047 12.4308 157.094 12.4308C155.984 12.4308 155.053 12.1448 154.299 11.5728L154.65 10.7928C155.074 11.0701 155.473 11.2694 155.846 11.3908C156.218 11.5121 156.634 11.5728 157.094 11.5728C157.7 11.5728 158.16 11.4081 158.472 11.0788C158.784 10.7581 158.94 10.2858 158.94 9.66176V8.54376C158.758 8.95109 158.476 9.26309 158.095 9.47976C157.722 9.69642 157.28 9.80476 156.769 9.80476C156.214 9.80476 155.72 9.67476 155.287 9.41476C154.862 9.15476 154.528 8.78642 154.286 8.30976C154.052 7.83309 153.935 7.28276 153.935 6.65876C153.935 6.03476 154.052 5.48442 154.286 5.00776C154.528 4.53109 154.862 4.16276 155.287 3.90276C155.72 3.64276 156.214 3.51276 156.769 3.51276C157.271 3.51276 157.709 3.62109 158.082 3.83776C158.454 4.05442 158.736 4.36209 158.927 4.76076V3.66876H159.98ZM156.977 8.93376C157.583 8.93376 158.06 8.73442 158.407 8.33576C158.753 7.92842 158.927 7.36942 158.927 6.65876C158.927 5.95676 158.753 5.40642 158.407 5.00776C158.069 4.60042 157.592 4.39676 156.977 4.39676C156.361 4.39676 155.876 4.60042 155.521 5.00776C155.174 5.40642 155.001 5.95676 155.001 6.65876C155.001 7.36942 155.174 7.92842 155.521 8.33576C155.876 8.73442 156.361 8.93376 156.977 8.93376ZM164.074 10.0908C163.008 10.0908 162.163 9.81776 161.539 9.27176L161.89 8.49176C162.228 8.76042 162.57 8.95542 162.917 9.07676C163.272 9.18942 163.671 9.24576 164.113 9.24576C164.581 9.24576 164.936 9.16776 165.179 9.01176C165.43 8.84709 165.556 8.61309 165.556 8.30976C165.556 8.05842 165.474 7.85909 165.309 7.71176C165.144 7.56442 164.871 7.44742 164.49 7.36076L163.424 7.11376C162.887 6.99242 162.475 6.78442 162.189 6.48976C161.903 6.19509 161.76 5.83109 161.76 5.39776C161.76 4.83442 161.981 4.37942 162.423 4.03276C162.865 3.68609 163.454 3.51276 164.191 3.51276C164.633 3.51276 165.053 3.58642 165.452 3.73376C165.851 3.87242 166.184 4.07609 166.453 4.34476L166.102 5.11176C165.521 4.61776 164.884 4.37076 164.191 4.37076C163.749 4.37076 163.402 4.45742 163.151 4.63076C162.908 4.79542 162.787 5.02942 162.787 5.33276C162.787 5.58409 162.861 5.78776 163.008 5.94376C163.164 6.09109 163.411 6.20376 163.749 6.28176L164.828 6.54176C165.417 6.68042 165.855 6.89276 166.141 7.17876C166.427 7.45609 166.57 7.82009 166.57 8.27076C166.57 8.82542 166.345 9.26742 165.894 9.59676C165.452 9.92609 164.845 10.0908 164.074 10.0908ZM2.40576 35.8558C1.98976 35.8558 1.59976 35.7561 1.23576 35.5568C0.871756 35.3488 0.581423 35.0714 0.364756 34.7248C0.156756 34.3694 0.0527559 33.9794 0.0527559 33.5548C0.0527559 33.1561 0.152423 32.7791 0.351756 32.4238C0.559756 32.0684 0.841423 31.7824 1.19676 31.5658C1.56076 31.3491 1.96376 31.2408 2.40576 31.2408C2.82176 31.2408 3.20742 31.3448 3.56276 31.5528C3.92676 31.7521 4.21709 32.0294 4.43376 32.3848C4.65042 32.7314 4.75876 33.1214 4.75876 33.5548C4.75876 33.9708 4.65042 34.3564 4.43376 34.7118C4.22576 35.0584 3.93976 35.3358 3.57576 35.5438C3.22042 35.7518 2.83042 35.8558 2.40576 35.8558ZM23.0397 27.8348L19.8417 36.9998H18.9317L16.3187 29.4988L13.7057 36.9998H12.8087L9.5977 27.8348H10.6767L13.2767 35.4918L15.9417 27.8348L16.7477 27.8478L19.3737 35.5048L21.9997 27.8348H23.0397ZM26.3017 30.5128C27.1077 30.5128 27.7057 30.7208 28.0957 31.1368C28.4944 31.5441 28.6937 32.1681 28.6937 33.0088V36.9998H27.6667V35.9208C27.502 36.2934 27.2507 36.5838 26.9127 36.7918C26.5747 36.9911 26.1847 37.0908 25.7427 37.0908C25.3354 37.0908 24.9584 37.0084 24.6117 36.8438C24.2737 36.6791 24.005 36.4494 23.8057 36.1548C23.6064 35.8601 23.5067 35.5351 23.5067 35.1798C23.5067 34.7031 23.628 34.3348 23.8707 34.0748C24.1134 33.8061 24.512 33.6154 25.0667 33.5028C25.6214 33.3814 26.3927 33.3208 27.3807 33.3208H27.6667V32.8918C27.6667 32.3631 27.5584 31.9818 27.3417 31.7478C27.125 31.5051 26.774 31.3838 26.2887 31.3838C25.5607 31.3838 24.837 31.6091 24.1177 32.0598L23.7667 31.2928C24.096 31.0588 24.4904 30.8724 24.9497 30.7338C25.4177 30.5864 25.8684 30.5128 26.3017 30.5128ZM25.8857 36.2588C26.4057 36.2588 26.8304 36.0854 27.1597 35.7388C27.4977 35.3834 27.6667 34.9284 27.6667 34.3738V33.9968H27.4327C26.67 33.9968 26.0894 34.0314 25.6907 34.1008C25.292 34.1614 25.006 34.2698 24.8327 34.4258C24.668 34.5731 24.5857 34.7941 24.5857 35.0888C24.5857 35.4268 24.707 35.7084 24.9497 35.9338C25.201 36.1504 25.513 36.2588 25.8857 36.2588ZM30.6212 27.8348H31.6742V36.9998H30.6212V27.8348ZM33.6427 27.8348H34.6957V36.9998H33.6427V27.8348ZM39.8492 30.5128C40.4039 30.5128 40.8935 30.6514 41.3182 30.9288C41.7429 31.2061 42.0722 31.5961 42.3062 32.0988C42.5402 32.5928 42.6572 33.1691 42.6572 33.8278C42.6572 34.4864 42.5402 35.0628 42.3062 35.5568C42.0722 36.0421 41.7429 36.4191 41.3182 36.6878C40.9022 36.9564 40.4125 37.0908 39.8492 37.0908C39.3552 37.0908 38.9219 36.9824 38.5492 36.7658C38.1852 36.5491 37.9079 36.2414 37.7172 35.8428V39.3398H36.6642V30.6688H37.7172V31.7608C37.9079 31.3621 38.1852 31.0544 38.5492 30.8378C38.9219 30.6211 39.3552 30.5128 39.8492 30.5128ZM39.6412 36.2198C40.2565 36.2198 40.7332 36.0118 41.0712 35.5958C41.4092 35.1798 41.5782 34.5904 41.5782 33.8278C41.5782 33.0651 41.4092 32.4714 41.0712 32.0468C40.7332 31.6134 40.2565 31.3968 39.6412 31.3968C39.0259 31.3968 38.5492 31.6048 38.2112 32.0208C37.8819 32.4368 37.7172 33.0304 37.7172 33.8018C37.7172 34.5731 37.8819 35.1711 38.2112 35.5958C38.5492 36.0118 39.0259 36.2198 39.6412 36.2198ZM46.8046 30.5128C47.6106 30.5128 48.2086 30.7208 48.5986 31.1368C48.9973 31.5441 49.1966 32.1681 49.1966 33.0088V36.9998H48.1696V35.9208C48.0049 36.2934 47.7536 36.5838 47.4156 36.7918C47.0776 36.9911 46.6876 37.0908 46.2456 37.0908C45.8383 37.0908 45.4613 37.0084 45.1146 36.8438C44.7766 36.6791 44.5079 36.4494 44.3086 36.1548C44.1093 35.8601 44.0096 35.5351 44.0096 35.1798C44.0096 34.7031 44.1309 34.3348 44.3736 34.0748C44.6163 33.8061 45.0149 33.6154 45.5696 33.5028C46.1243 33.3814 46.8956 33.3208 47.8836 33.3208H48.1696V32.8918C48.1696 32.3631 48.0613 31.9818 47.8446 31.7478C47.6279 31.5051 47.2769 31.3838 46.7916 31.3838C46.0636 31.3838 45.3399 31.6091 44.6206 32.0598L44.2696 31.2928C44.5989 31.0588 44.9933 30.8724 45.4526 30.7338C45.9206 30.5864 46.3713 30.5128 46.8046 30.5128ZM46.3886 36.2588C46.9086 36.2588 47.3333 36.0854 47.6626 35.7388C48.0006 35.3834 48.1696 34.9284 48.1696 34.3738V33.9968H47.9356C47.1729 33.9968 46.5923 34.0314 46.1936 34.1008C45.7949 34.1614 45.5089 34.2698 45.3356 34.4258C45.1709 34.5731 45.0886 34.7941 45.0886 35.0888C45.0886 35.4268 45.2099 35.7084 45.4526 35.9338C45.7039 36.1504 46.0159 36.2588 46.3886 36.2588ZM54.3092 30.5128C54.8638 30.5128 55.3535 30.6514 55.7782 30.9288C56.2028 31.2061 56.5322 31.5961 56.7662 32.0988C57.0002 32.5928 57.1172 33.1691 57.1172 33.8278C57.1172 34.4864 57.0002 35.0628 56.7662 35.5568C56.5322 36.0421 56.2028 36.4191 55.7782 36.6878C55.3622 36.9564 54.8725 37.0908 54.3092 37.0908C53.8152 37.0908 53.3818 36.9824 53.0092 36.7658C52.6452 36.5491 52.3678 36.2414 52.1772 35.8428V39.3398H51.1242V30.6688H52.1772V31.7608C52.3678 31.3621 52.6452 31.0544 53.0092 30.8378C53.3818 30.6211 53.8152 30.5128 54.3092 30.5128ZM54.1012 36.2198C54.7165 36.2198 55.1932 36.0118 55.5312 35.5958C55.8692 35.1798 56.0382 34.5904 56.0382 33.8278C56.0382 33.0651 55.8692 32.4714 55.5312 32.0468C55.1932 31.6134 54.7165 31.3968 54.1012 31.3968C53.4858 31.3968 53.0092 31.6048 52.6712 32.0208C52.3418 32.4368 52.1772 33.0304 52.1772 33.8018C52.1772 34.5731 52.3418 35.1711 52.6712 35.5958C53.0092 36.0118 53.4858 36.2198 54.1012 36.2198ZM63.9946 33.9968H59.3666C59.4012 34.7334 59.6006 35.2924 59.9646 35.6738C60.3286 36.0464 60.8442 36.2328 61.5116 36.2328C62.2482 36.2328 62.9242 35.9814 63.5396 35.4788L63.8906 36.2458C63.6132 36.5058 63.2579 36.7138 62.8246 36.8698C62.3912 37.0171 61.9492 37.0908 61.4986 37.0908C60.5106 37.0908 59.7306 36.8004 59.1586 36.2198C58.5952 35.6391 58.3136 34.8374 58.3136 33.8148C58.3136 33.1648 58.4392 32.5928 58.6906 32.0988C58.9419 31.5961 59.2929 31.2061 59.7436 30.9288C60.2029 30.6514 60.7229 30.5128 61.3036 30.5128C62.1442 30.5128 62.8029 30.7901 63.2796 31.3448C63.7562 31.8908 63.9946 32.6448 63.9946 33.6068V33.9968ZM61.3166 31.3318C60.7619 31.3318 60.3156 31.5051 59.9776 31.8518C59.6482 32.1984 59.4532 32.6881 59.3926 33.3208H63.0716C63.0542 32.6794 62.8939 32.1898 62.5906 31.8518C62.2872 31.5051 61.8626 31.3318 61.3166 31.3318ZM69.134 31.4228L68.445 31.4878C67.795 31.5484 67.3227 31.7521 67.028 32.0988C66.742 32.4454 66.599 32.8744 66.599 33.3858V36.9998H65.546V30.6688H66.573V31.7738C66.9284 31.0371 67.626 30.6254 68.666 30.5388L69.043 30.5128L69.134 31.4228ZM70.1291 30.6688H71.1821V36.9998H70.1291V30.6688ZM71.2991 27.9258V29.1088H70.0251V27.9258H71.2991ZM76.3355 30.5128C77.8522 30.5128 78.6105 31.3491 78.6105 33.0218V36.9998H77.5575V33.0868C77.5575 32.4974 77.4405 32.0684 77.2065 31.7998C76.9812 31.5311 76.6172 31.3968 76.1145 31.3968C75.5339 31.3968 75.0702 31.5744 74.7235 31.9298C74.3769 32.2851 74.2035 32.7661 74.2035 33.3728V36.9998H73.1505V30.6688H74.1905V31.7088C74.3985 31.3188 74.6889 31.0241 75.0615 30.8248C75.4342 30.6168 75.8589 30.5128 76.3355 30.5128ZM86.2072 30.6688V36.5708C86.2072 37.5154 85.9645 38.2261 85.4792 38.7028C84.9939 39.1881 84.2745 39.4308 83.3212 39.4308C82.2119 39.4308 81.2802 39.1448 80.5262 38.5728L80.8772 37.7928C81.3019 38.0701 81.7005 38.2694 82.0732 38.3908C82.4459 38.5121 82.8619 38.5728 83.3212 38.5728C83.9279 38.5728 84.3872 38.4081 84.6992 38.0788C85.0112 37.7581 85.1672 37.2858 85.1672 36.6618V35.5438C84.9852 35.9511 84.7035 36.2631 84.3222 36.4798C83.9495 36.6964 83.5075 36.8048 82.9962 36.8048C82.4415 36.8048 81.9475 36.6748 81.5142 36.4148C81.0895 36.1548 80.7559 35.7864 80.5132 35.3098C80.2792 34.8331 80.1622 34.2828 80.1622 33.6588C80.1622 33.0348 80.2792 32.4844 80.5132 32.0078C80.7559 31.5311 81.0895 31.1628 81.5142 30.9028C81.9475 30.6428 82.4415 30.5128 82.9962 30.5128C83.4989 30.5128 83.9365 30.6211 84.3092 30.8378C84.6819 31.0544 84.9635 31.3621 85.1542 31.7608V30.6688H86.2072ZM83.2042 35.9338C83.8109 35.9338 84.2875 35.7344 84.6342 35.3358C84.9809 34.9284 85.1542 34.3694 85.1542 33.6588C85.1542 32.9568 84.9809 32.4064 84.6342 32.0078C84.2962 31.6004 83.8195 31.3968 83.2042 31.3968C82.5889 31.3968 82.1035 31.6004 81.7482 32.0078C81.4015 32.4064 81.2282 32.9568 81.2282 33.6588C81.2282 34.3694 81.4015 34.9284 81.7482 35.3358C82.1035 35.7344 82.5889 35.9338 83.2042 35.9338ZM2.40576 61.8558C1.98976 61.8558 1.59976 61.7561 1.23576 61.5568C0.871756 61.3488 0.581423 61.0714 0.364756 60.7248C0.156756 60.3694 0.0527559 59.9794 0.0527559 59.5548C0.0527559 59.1561 0.152423 58.7791 0.351756 58.4238C0.559756 58.0684 0.841423 57.7824 1.19676 57.5658C1.56076 57.3491 1.96376 57.2408 2.40576 57.2408C2.82176 57.2408 3.20742 57.3448 3.56276 57.5528C3.92676 57.7521 4.21709 58.0294 4.43376 58.3848C4.65042 58.7314 4.75876 59.1214 4.75876 59.5548C4.75876 59.9708 4.65042 60.3564 4.43376 60.7118C4.22576 61.0584 3.93976 61.3358 3.57576 61.5438C3.22042 61.7518 2.83042 61.8558 2.40576 61.8558ZM10.2997 53.8348H13.9267C14.8887 53.8348 15.634 54.0688 16.1627 54.5368C16.7 55.0048 16.9687 55.6678 16.9687 56.5258C16.9687 57.3838 16.7 58.0511 16.1627 58.5278C15.6254 59.0044 14.88 59.2428 13.9267 59.2428H11.3657V62.9998H10.2997V53.8348ZM13.8227 58.3588C15.218 58.3588 15.9157 57.7478 15.9157 56.5258C15.9157 55.3211 15.218 54.7188 13.8227 54.7188H11.3657V58.3588H13.8227ZM20.957 56.5128C21.763 56.5128 22.361 56.7208 22.751 57.1368C23.1496 57.5441 23.349 58.1681 23.349 59.0088V62.9998H22.322V61.9208C22.1573 62.2934 21.906 62.5838 21.568 62.7918C21.23 62.9911 20.84 63.0908 20.398 63.0908C19.9906 63.0908 19.6136 63.0084 19.267 62.8438C18.929 62.6791 18.6603 62.4494 18.461 62.1548C18.2616 61.8601 18.162 61.5351 18.162 61.1798C18.162 60.7031 18.2833 60.3348 18.526 60.0748C18.7686 59.8061 19.1673 59.6154 19.722 59.5028C20.2766 59.3814 21.048 59.3208 22.036 59.3208H22.322V58.8918C22.322 58.3631 22.2136 57.9818 21.997 57.7478C21.7803 57.5051 21.4293 57.3838 20.944 57.3838C20.216 57.3838 19.4923 57.6091 18.773 58.0598L18.422 57.2928C18.7513 57.0588 19.1456 56.8724 19.605 56.7338C20.073 56.5864 20.5236 56.5128 20.957 56.5128ZM20.541 62.2588C21.061 62.2588 21.4856 62.0854 21.815 61.7388C22.153 61.3834 22.322 60.9284 22.322 60.3738V59.9968H22.088C21.3253 59.9968 20.7446 60.0314 20.346 60.1008C19.9473 60.1614 19.6613 60.2698 19.488 60.4258C19.3233 60.5731 19.241 60.7941 19.241 61.0888C19.241 61.4268 19.3623 61.7084 19.605 61.9338C19.8563 62.1504 20.1683 62.2588 20.541 62.2588ZM25.2765 56.6688H26.3295V62.9998H25.2765V56.6688ZM26.4465 53.9258V55.1088H25.1725V53.9258H26.4465ZM31.483 56.5128C32.9997 56.5128 33.758 57.3491 33.758 59.0218V62.9998H32.705V59.0868C32.705 58.4974 32.588 58.0684 32.354 57.7998C32.1287 57.5311 31.7647 57.3968 31.262 57.3968C30.6813 57.3968 30.2177 57.5744 29.871 57.9298C29.5243 58.2851 29.351 58.7661 29.351 59.3728V62.9998H28.298V56.6688H29.338V57.7088C29.546 57.3188 29.8363 57.0241 30.209 56.8248C30.5817 56.6168 31.0063 56.5128 31.483 56.5128ZM38.4687 62.2458C38.6593 62.2458 38.85 62.2328 39.0407 62.2068L38.9887 63.0388C38.7893 63.0734 38.5727 63.0908 38.3387 63.0908C37.576 63.0908 36.9997 62.8914 36.6097 62.4928C36.2283 62.0941 36.0377 61.5394 36.0377 60.8288V57.5008H34.8027V56.6688H36.0377V54.7448H37.0907V56.6688H38.8847V57.5008H37.0907V60.7508C37.0907 61.7474 37.55 62.2458 38.4687 62.2458ZM40.1046 56.6688H41.1576V62.9998H40.1046V56.6688ZM41.2746 53.9258V55.1088H40.0006V53.9258H41.2746ZM46.3111 56.5128C47.8278 56.5128 48.5861 57.3491 48.5861 59.0218V62.9998H47.5331V59.0868C47.5331 58.4974 47.4161 58.0684 47.1821 57.7998C46.9568 57.5311 46.5928 57.3968 46.0901 57.3968C45.5095 57.3968 45.0458 57.5744 44.6991 57.9298C44.3525 58.2851 44.1791 58.7661 44.1791 59.3728V62.9998H43.1261V56.6688H44.1661V57.7088C44.3741 57.3188 44.6645 57.0241 45.0371 56.8248C45.4098 56.6168 45.8345 56.5128 46.3111 56.5128ZM56.1828 56.6688V62.5708C56.1828 63.5154 55.9401 64.2261 55.4548 64.7028C54.9695 65.1881 54.2501 65.4308 53.2968 65.4308C52.1875 65.4308 51.2558 65.1448 50.5018 64.5728L50.8528 63.7928C51.2775 64.0701 51.6761 64.2694 52.0488 64.3908C52.4215 64.5121 52.8375 64.5728 53.2968 64.5728C53.9035 64.5728 54.3628 64.4081 54.6748 64.0788C54.9868 63.7581 55.1428 63.2858 55.1428 62.6618V61.5438C54.9608 61.9511 54.6791 62.2631 54.2978 62.4798C53.9251 62.6964 53.4831 62.8048 52.9718 62.8048C52.4171 62.8048 51.9231 62.6748 51.4898 62.4148C51.0651 62.1548 50.7315 61.7864 50.4888 61.3098C50.2548 60.8331 50.1378 60.2828 50.1378 59.6588C50.1378 59.0348 50.2548 58.4844 50.4888 58.0078C50.7315 57.5311 51.0651 57.1628 51.4898 56.9028C51.9231 56.6428 52.4171 56.5128 52.9718 56.5128C53.4745 56.5128 53.9121 56.6211 54.2848 56.8378C54.6575 57.0544 54.9391 57.3621 55.1298 57.7608V56.6688H56.1828ZM53.1798 61.9338C53.7865 61.9338 54.2631 61.7344 54.6098 61.3358C54.9565 60.9284 55.1298 60.3694 55.1298 59.6588C55.1298 58.9568 54.9565 58.4064 54.6098 58.0078C54.2718 57.6004 53.7951 57.3968 53.1798 57.3968C52.5645 57.3968 52.0791 57.6004 51.7238 58.0078C51.3771 58.4064 51.2038 58.9568 51.2038 59.6588C51.2038 60.3694 51.3771 60.9284 51.7238 61.3358C52.0791 61.7344 52.5645 61.9338 53.1798 61.9338ZM71.1295 56.6688L68.7765 62.9998H67.7625L65.9815 58.0988L64.1875 62.9998H63.1865L60.8335 56.6688H61.9255L63.7195 61.7518L65.5525 56.6688H66.4625L68.2695 61.7518L70.0765 56.6688H71.1295ZM74.8866 56.5128C75.6926 56.5128 76.2906 56.7208 76.6806 57.1368C77.0793 57.5441 77.2786 58.1681 77.2786 59.0088V62.9998H76.2516V61.9208C76.087 62.2934 75.8356 62.5838 75.4976 62.7918C75.1596 62.9911 74.7696 63.0908 74.3276 63.0908C73.9203 63.0908 73.5433 63.0084 73.1966 62.8438C72.8586 62.6791 72.59 62.4494 72.3906 62.1548C72.1913 61.8601 72.0916 61.5351 72.0916 61.1798C72.0916 60.7031 72.213 60.3348 72.4556 60.0748C72.6983 59.8061 73.097 59.6154 73.6516 59.5028C74.2063 59.3814 74.9776 59.3208 75.9656 59.3208H76.2516V58.8918C76.2516 58.3631 76.1433 57.9818 75.9266 57.7478C75.71 57.5051 75.359 57.3838 74.8736 57.3838C74.1456 57.3838 73.422 57.6091 72.7026 58.0598L72.3516 57.2928C72.681 57.0588 73.0753 56.8724 73.5346 56.7338C74.0026 56.5864 74.4533 56.5128 74.8866 56.5128ZM74.4706 62.2588C74.9906 62.2588 75.4153 62.0854 75.7446 61.7388C76.0826 61.3834 76.2516 60.9284 76.2516 60.3738V59.9968H76.0176C75.255 59.9968 74.6743 60.0314 74.2756 60.1008C73.877 60.1614 73.591 60.2698 73.4176 60.4258C73.253 60.5731 73.1706 60.7941 73.1706 61.0888C73.1706 61.4268 73.292 61.7084 73.5346 61.9338C73.786 62.1504 74.098 62.2588 74.4706 62.2588ZM79.2062 53.8348H80.2592V62.9998H79.2062V53.8348ZM82.2277 53.8348H83.2807V62.9998H82.2277V53.8348ZM87.3942 63.0908C86.3282 63.0908 85.4832 62.8178 84.8592 62.2718L85.2102 61.4918C85.5482 61.7604 85.8905 61.9554 86.2372 62.0768C86.5925 62.1894 86.9912 62.2458 87.4332 62.2458C87.9012 62.2458 88.2565 62.1678 88.4992 62.0118C88.7505 61.8471 88.8762 61.6131 88.8762 61.3098C88.8762 61.0584 88.7938 60.8591 88.6292 60.7118C88.4645 60.5644 88.1915 60.4474 87.8102 60.3608L86.7442 60.1138C86.2068 59.9924 85.7952 59.7844 85.5092 59.4898C85.2232 59.1951 85.0802 58.8311 85.0802 58.3978C85.0802 57.8344 85.3012 57.3794 85.7432 57.0328C86.1852 56.6861 86.7745 56.5128 87.5112 56.5128C87.9532 56.5128 88.3735 56.5864 88.7722 56.7338C89.1708 56.8724 89.5045 57.0761 89.7732 57.3448L89.4222 58.1118C88.8415 57.6178 88.2045 57.3708 87.5112 57.3708C87.0692 57.3708 86.7225 57.4574 86.4712 57.6308C86.2285 57.7954 86.1072 58.0294 86.1072 58.3328C86.1072 58.5841 86.1808 58.7878 86.3282 58.9438C86.4842 59.0911 86.7312 59.2038 87.0692 59.2818L88.1482 59.5418C88.7375 59.6804 89.1752 59.8928 89.4612 60.1788C89.7472 60.4561 89.8902 60.8201 89.8902 61.2708C89.8902 61.8254 89.6648 62.2674 89.2142 62.5968C88.7722 62.9261 88.1655 63.0908 87.3942 63.0908ZM97.4208 56.5128C98.2268 56.5128 98.8248 56.7208 99.2148 57.1368C99.6135 57.5441 99.8128 58.1681 99.8128 59.0088V62.9998H98.7858V61.9208C98.6212 62.2934 98.3698 62.5838 98.0318 62.7918C97.6938 62.9911 97.3038 63.0908 96.8618 63.0908C96.4545 63.0908 96.0775 63.0084 95.7308 62.8438C95.3928 62.6791 95.1242 62.4494 94.9248 62.1548C94.7255 61.8601 94.6258 61.5351 94.6258 61.1798C94.6258 60.7031 94.7472 60.3348 94.9898 60.0748C95.2325 59.8061 95.6312 59.6154 96.1858 59.5028C96.7405 59.3814 97.5118 59.3208 98.4998 59.3208H98.7858V58.8918C98.7858 58.3631 98.6775 57.9818 98.4608 57.7478C98.2442 57.5051 97.8932 57.3838 97.4078 57.3838C96.6798 57.3838 95.9562 57.6091 95.2368 58.0598L94.8858 57.2928C95.2152 57.0588 95.6095 56.8724 96.0688 56.7338C96.5368 56.5864 96.9875 56.5128 97.4208 56.5128ZM97.0048 62.2588C97.5248 62.2588 97.9495 62.0854 98.2788 61.7388C98.6168 61.3834 98.7858 60.9284 98.7858 60.3738V59.9968H98.5518C97.7892 59.9968 97.2085 60.0314 96.8098 60.1008C96.4112 60.1614 96.1252 60.2698 95.9518 60.4258C95.7872 60.5731 95.7048 60.7941 95.7048 61.0888C95.7048 61.4268 95.8262 61.7084 96.0688 61.9338C96.3202 62.1504 96.6322 62.2588 97.0048 62.2588ZM104.925 56.5128C106.442 56.5128 107.2 57.3491 107.2 59.0218V62.9998H106.147V59.0868C106.147 58.4974 106.03 58.0684 105.796 57.7998C105.571 57.5311 105.207 57.3968 104.704 57.3968C104.124 57.3968 103.66 57.5744 103.313 57.9298C102.967 58.2851 102.793 58.7661 102.793 59.3728V62.9998H101.74V56.6688H102.78V57.7088C102.988 57.3188 103.279 57.0241 103.651 56.8248C104.024 56.6168 104.449 56.5128 104.925 56.5128ZM114.745 53.8348V62.9998H113.692V61.8428C113.501 62.2414 113.22 62.5491 112.847 62.7658C112.483 62.9824 112.054 63.0908 111.56 63.0908C111.005 63.0908 110.516 62.9521 110.091 62.6748C109.666 62.3974 109.337 62.0118 109.103 61.5178C108.869 61.0151 108.752 60.4344 108.752 59.7758C108.752 59.1258 108.869 58.5538 109.103 58.0598C109.337 57.5658 109.666 57.1844 110.091 56.9158C110.516 56.6471 111.005 56.5128 111.56 56.5128C112.054 56.5128 112.483 56.6211 112.847 56.8378C113.22 57.0544 113.501 57.3621 113.692 57.7608V53.8348H114.745ZM111.768 62.2198C112.383 62.2198 112.856 62.0118 113.185 61.5958C113.523 61.1711 113.692 60.5731 113.692 59.8018C113.692 59.0304 113.523 58.4368 113.185 58.0208C112.856 57.6048 112.383 57.3968 111.768 57.3968C111.153 57.3968 110.672 57.6048 110.325 58.0208C109.987 58.4368 109.818 59.0218 109.818 59.7758C109.818 60.5471 109.987 61.1494 110.325 61.5828C110.672 62.0074 111.153 62.2198 111.768 62.2198ZM122.725 63.0908C122.101 63.0908 121.559 62.9564 121.1 62.6878C120.641 62.4191 120.285 62.0421 120.034 61.5568C119.791 61.0628 119.67 60.4864 119.67 59.8278C119.67 59.1691 119.796 58.5928 120.047 58.0988C120.307 57.5961 120.667 57.2061 121.126 56.9288C121.594 56.6514 122.14 56.5128 122.764 56.5128C123.189 56.5128 123.605 56.5908 124.012 56.7468C124.419 56.8941 124.749 57.0934 125 57.3448L124.649 58.1248C124.051 57.6394 123.444 57.3968 122.829 57.3968C122.179 57.3968 121.672 57.6091 121.308 58.0338C120.944 58.4584 120.762 59.0564 120.762 59.8278C120.762 60.5904 120.944 61.1798 121.308 61.5958C121.672 62.0118 122.179 62.2198 122.829 62.2198C123.444 62.2198 124.051 61.9771 124.649 61.4918L125 62.2718C124.731 62.5231 124.393 62.7224 123.986 62.8698C123.579 63.0171 123.158 63.0908 122.725 63.0908ZM131.572 59.9968H126.944C126.978 60.7334 127.178 61.2924 127.542 61.6738C127.906 62.0464 128.421 62.2328 129.089 62.2328C129.825 62.2328 130.501 61.9814 131.117 61.4788L131.468 62.2458C131.19 62.5058 130.835 62.7138 130.402 62.8698C129.968 63.0171 129.526 63.0908 129.076 63.0908C128.088 63.0908 127.308 62.8004 126.736 62.2198C126.172 61.6391 125.891 60.8374 125.891 59.8148C125.891 59.1648 126.016 58.5928 126.268 58.0988C126.519 57.5961 126.87 57.2061 127.321 56.9288C127.78 56.6514 128.3 56.5128 128.881 56.5128C129.721 56.5128 130.38 56.7901 130.857 57.3448C131.333 57.8908 131.572 58.6448 131.572 59.6068V59.9968ZM128.894 57.3318C128.339 57.3318 127.893 57.5051 127.555 57.8518C127.225 58.1984 127.03 58.6881 126.97 59.3208H130.649C130.631 58.6794 130.471 58.1898 130.168 57.8518C129.864 57.5051 129.44 57.3318 128.894 57.3318ZM133.123 56.6688H134.176V62.9998H133.123V56.6688ZM134.293 53.9258V55.1088H133.019V53.9258H134.293ZM136.145 53.8348H137.198V62.9998H136.145V53.8348ZM139.166 56.6688H140.219V62.9998H139.166V56.6688ZM140.336 53.9258V55.1088H139.062V53.9258H140.336ZM145.373 56.5128C146.889 56.5128 147.648 57.3491 147.648 59.0218V62.9998H146.595V59.0868C146.595 58.4974 146.478 58.0684 146.244 57.7998C146.018 57.5311 145.654 57.3968 145.152 57.3968C144.571 57.3968 144.107 57.5744 143.761 57.9298C143.414 58.2851 143.241 58.7661 143.241 59.3728V62.9998H142.188V56.6688H143.228V57.7088C143.436 57.3188 143.726 57.0241 144.099 56.8248C144.471 56.6168 144.896 56.5128 145.373 56.5128ZM155.244 56.6688V62.5708C155.244 63.5154 155.002 64.2261 154.516 64.7028C154.031 65.1881 153.312 65.4308 152.358 65.4308C151.249 65.4308 150.317 65.1448 149.563 64.5728L149.914 63.7928C150.339 64.0701 150.738 64.2694 151.11 64.3908C151.483 64.5121 151.899 64.5728 152.358 64.5728C152.965 64.5728 153.424 64.4081 153.736 64.0788C154.048 63.7581 154.204 63.2858 154.204 62.6618V61.5438C154.022 61.9511 153.741 62.2631 153.359 62.4798C152.987 62.6964 152.545 62.8048 152.033 62.8048C151.479 62.8048 150.985 62.6748 150.551 62.4148C150.127 62.1548 149.793 61.7864 149.55 61.3098C149.316 60.8331 149.199 60.2828 149.199 59.6588C149.199 59.0348 149.316 58.4844 149.55 58.0078C149.793 57.5311 150.127 57.1628 150.551 56.9028C150.985 56.6428 151.479 56.5128 152.033 56.5128C152.536 56.5128 152.974 56.6211 153.346 56.8378C153.719 57.0544 154.001 57.3621 154.191 57.7608V56.6688H155.244ZM152.241 61.9338C152.848 61.9338 153.325 61.7344 153.671 61.3358C154.018 60.9284 154.191 60.3694 154.191 59.6588C154.191 58.9568 154.018 58.4064 153.671 58.0078C153.333 57.6004 152.857 57.3968 152.241 57.3968C151.626 57.3968 151.141 57.6004 150.785 58.0078C150.439 58.4064 150.265 58.9568 150.265 59.6588C150.265 60.3694 150.439 60.9284 150.785 61.3358C151.141 61.7344 151.626 61.9338 152.241 61.9338ZM159.339 63.0908C158.273 63.0908 157.428 62.8178 156.804 62.2718L157.155 61.4918C157.493 61.7604 157.835 61.9554 158.182 62.0768C158.537 62.1894 158.936 62.2458 159.378 62.2458C159.846 62.2458 160.201 62.1678 160.444 62.0118C160.695 61.8471 160.821 61.6131 160.821 61.3098C160.821 61.0584 160.738 60.8591 160.574 60.7118C160.409 60.5644 160.136 60.4474 159.755 60.3608L158.689 60.1138C158.151 59.9924 157.74 59.7844 157.454 59.4898C157.168 59.1951 157.025 58.8311 157.025 58.3978C157.025 57.8344 157.246 57.3794 157.688 57.0328C158.13 56.6861 158.719 56.5128 159.456 56.5128C159.898 56.5128 160.318 56.5864 160.717 56.7338C161.115 56.8724 161.449 57.0761 161.718 57.3448L161.367 58.1118C160.786 57.6178 160.149 57.3708 159.456 57.3708C159.014 57.3708 158.667 57.4574 158.416 57.6308C158.173 57.7954 158.052 58.0294 158.052 58.3328C158.052 58.5841 158.125 58.7878 158.273 58.9438C158.429 59.0911 158.676 59.2038 159.014 59.2818L160.093 59.5418C160.682 59.6804 161.12 59.8928 161.406 60.1788C161.692 60.4561 161.835 60.8201 161.835 61.2708C161.835 61.8254 161.609 62.2674 161.159 62.5968C160.717 62.9261 160.11 63.0908 159.339 63.0908ZM2.40576 88.8558C1.98976 88.8558 1.59976 88.7561 1.23576 88.5568C0.871756 88.3488 0.581423 88.0714 0.364756 87.7248C0.156756 87.3694 0.0527559 86.9794 0.0527559 86.5548C0.0527559 86.1561 0.152423 85.7791 0.351756 85.4238C0.559756 85.0684 0.841423 84.7824 1.19676 84.5658C1.56076 84.3491 1.96376 84.2408 2.40576 84.2408C2.82176 84.2408 3.20742 84.3448 3.56276 84.5528C3.92676 84.7521 4.21709 85.0294 4.43376 85.3848C4.65042 85.7314 4.75876 86.1214 4.75876 86.5548C4.75876 86.9708 4.65042 87.3564 4.43376 87.7118C4.22576 88.0584 3.93976 88.3358 3.57576 88.5438C3.22042 88.7518 2.83042 88.8558 2.40576 88.8558ZM10.2997 80.8348H11.3657V89.0898H15.9547V89.9998H10.2997V80.8348ZM19.7382 83.5128C20.5442 83.5128 21.1422 83.7208 21.5322 84.1368C21.9309 84.5441 22.1302 85.1681 22.1302 86.0088V89.9998H21.1032V88.9208C20.9385 89.2934 20.6872 89.5838 20.3492 89.7918C20.0112 89.9911 19.6212 90.0908 19.1792 90.0908C18.7719 90.0908 18.3949 90.0084 18.0482 89.8438C17.7102 89.6791 17.4415 89.4494 17.2422 89.1548C17.0429 88.8601 16.9432 88.5351 16.9432 88.1798C16.9432 87.7031 17.0645 87.3348 17.3072 87.0748C17.5499 86.8061 17.9485 86.6154 18.5032 86.5028C19.0579 86.3814 19.8292 86.3208 20.8172 86.3208H21.1032V85.8918C21.1032 85.3631 20.9949 84.9818 20.7782 84.7478C20.5615 84.5051 20.2105 84.3838 19.7252 84.3838C18.9972 84.3838 18.2735 84.6091 17.5542 85.0598L17.2032 84.2928C17.5325 84.0588 17.9269 83.8724 18.3862 83.7338C18.8542 83.5864 19.3049 83.5128 19.7382 83.5128ZM19.3222 89.2588C19.8422 89.2588 20.2669 89.0854 20.5962 88.7388C20.9342 88.3834 21.1032 87.9284 21.1032 87.3738V86.9968H20.8692C20.1065 86.9968 19.5259 87.0314 19.1272 87.1008C18.7285 87.1614 18.4425 87.2698 18.2692 87.4258C18.1045 87.5731 18.0222 87.7941 18.0222 88.0888C18.0222 88.4268 18.1435 88.7084 18.3862 88.9338C18.6375 89.1504 18.9495 89.2588 19.3222 89.2588ZM29.6478 83.6818L25.9038 92.3398H24.8248L25.8908 89.9218L23.2128 83.6818H24.3308L26.4498 88.8558L28.5948 83.6818H29.6478ZM30.7355 83.6688H31.7885V89.9998H30.7355V83.6688ZM31.9055 80.9258V82.1088H30.6315V80.9258H31.9055ZM36.942 83.5128C38.4586 83.5128 39.217 84.3491 39.217 86.0218V89.9998H38.164V86.0868C38.164 85.4974 38.047 85.0684 37.813 84.7998C37.5876 84.5311 37.2236 84.3968 36.721 84.3968C36.1403 84.3968 35.6766 84.5744 35.33 84.9298C34.9833 85.2851 34.81 85.7661 34.81 86.3728V89.9998H33.757V83.6688H34.797V84.7088C35.005 84.3188 35.2953 84.0241 35.668 83.8248C36.0406 83.6168 36.4653 83.5128 36.942 83.5128ZM46.8137 83.6688V89.5708C46.8137 90.5154 46.571 91.2261 46.0857 91.7028C45.6003 92.1881 44.881 92.4308 43.9277 92.4308C42.8183 92.4308 41.8867 92.1448 41.1327 91.5728L41.4837 90.7928C41.9083 91.0701 42.307 91.2694 42.6797 91.3908C43.0523 91.5121 43.4683 91.5728 43.9277 91.5728C44.5343 91.5728 44.9937 91.4081 45.3057 91.0788C45.6177 90.7581 45.7737 90.2858 45.7737 89.6618V88.5438C45.5917 88.9511 45.31 89.2631 44.9287 89.4798C44.556 89.6964 44.114 89.8048 43.6027 89.8048C43.048 89.8048 42.554 89.6748 42.1207 89.4148C41.696 89.1548 41.3623 88.7864 41.1197 88.3098C40.8857 87.8331 40.7687 87.2828 40.7687 86.6588C40.7687 86.0348 40.8857 85.4844 41.1197 85.0078C41.3623 84.5311 41.696 84.1628 42.1207 83.9028C42.554 83.6428 43.048 83.5128 43.6027 83.5128C44.1053 83.5128 44.543 83.6211 44.9157 83.8378C45.2883 84.0544 45.57 84.3621 45.7607 84.7608V83.6688H46.8137ZM43.8107 88.9338C44.4173 88.9338 44.894 88.7344 45.2407 88.3358C45.5873 87.9284 45.7607 87.3694 45.7607 86.6588C45.7607 85.9568 45.5873 85.4064 45.2407 85.0078C44.9027 84.6004 44.426 84.3968 43.8107 84.3968C43.1953 84.3968 42.71 84.6004 42.3547 85.0078C42.008 85.4064 41.8347 85.9568 41.8347 86.6588C41.8347 87.3694 42.008 87.9284 42.3547 88.3358C42.71 88.7344 43.1953 88.9338 43.8107 88.9338ZM53.5184 83.6688H55.3124V84.5008H53.5184V89.9998H52.4654V84.5008H51.2304V83.6688H52.4654V83.4608C52.4654 82.6201 52.6734 81.9831 53.0894 81.5498C53.5141 81.1164 54.1641 80.8738 55.0394 80.8218L55.5594 80.7958L55.6374 81.6148L55.0394 81.6538C54.5107 81.6884 54.1251 81.8401 53.8824 82.1088C53.6397 82.3688 53.5184 82.7718 53.5184 83.3178V83.6688ZM56.3784 80.8348H57.4314V89.9998H56.3784V80.8348ZM62.0148 90.0908C61.4168 90.0908 60.8882 89.9564 60.4288 89.6878C59.9782 89.4191 59.6272 89.0378 59.3758 88.5438C59.1332 88.0411 59.0118 87.4604 59.0118 86.8018C59.0118 86.1431 59.1332 85.5668 59.3758 85.0728C59.6272 84.5701 59.9782 84.1844 60.4288 83.9158C60.8882 83.6471 61.4168 83.5128 62.0148 83.5128C62.6128 83.5128 63.1415 83.6471 63.6008 83.9158C64.0602 84.1844 64.4112 84.5701 64.6538 85.0728C64.9052 85.5668 65.0308 86.1431 65.0308 86.8018C65.0308 87.4604 64.9052 88.0411 64.6538 88.5438C64.4112 89.0378 64.0602 89.4191 63.6008 89.6878C63.1415 89.9564 62.6128 90.0908 62.0148 90.0908ZM62.0148 89.2198C62.6388 89.2198 63.1155 89.0161 63.4448 88.6088C63.7828 88.1928 63.9518 87.5904 63.9518 86.8018C63.9518 86.0304 63.7828 85.4368 63.4448 85.0208C63.1068 84.5961 62.6302 84.3838 62.0148 84.3838C61.3995 84.3838 60.9228 84.5961 60.5848 85.0208C60.2468 85.4368 60.0778 86.0304 60.0778 86.8018C60.0778 87.5818 60.2425 88.1798 60.5718 88.5958C60.9098 89.0118 61.3908 89.2198 62.0148 89.2198ZM69.2258 90.0908C68.6278 90.0908 68.0991 89.9564 67.6398 89.6878C67.1891 89.4191 66.8381 89.0378 66.5868 88.5438C66.3441 88.0411 66.2228 87.4604 66.2228 86.8018C66.2228 86.1431 66.3441 85.5668 66.5868 85.0728C66.8381 84.5701 67.1891 84.1844 67.6398 83.9158C68.0991 83.6471 68.6278 83.5128 69.2258 83.5128C69.8238 83.5128 70.3524 83.6471 70.8118 83.9158C71.2711 84.1844 71.6221 84.5701 71.8648 85.0728C72.1161 85.5668 72.2418 86.1431 72.2418 86.8018C72.2418 87.4604 72.1161 88.0411 71.8648 88.5438C71.6221 89.0378 71.2711 89.4191 70.8118 89.6878C70.3524 89.9564 69.8238 90.0908 69.2258 90.0908ZM69.2258 89.2198C69.8498 89.2198 70.3264 89.0161 70.6558 88.6088C70.9938 88.1928 71.1628 87.5904 71.1628 86.8018C71.1628 86.0304 70.9938 85.4368 70.6558 85.0208C70.3178 84.5961 69.8411 84.3838 69.2258 84.3838C68.6104 84.3838 68.1338 84.5961 67.7958 85.0208C67.4578 85.4368 67.2888 86.0304 67.2888 86.8018C67.2888 87.5818 67.4534 88.1798 67.7828 88.5958C68.1208 89.0118 68.6018 89.2198 69.2258 89.2198ZM77.3987 84.4228L76.7097 84.4878C76.0597 84.5484 75.5874 84.7521 75.2927 85.0988C75.0067 85.4454 74.8637 85.8744 74.8637 86.3858V89.9998H73.8107V83.6688H74.8377V84.7738C75.193 84.0371 75.8907 83.6254 76.9307 83.5388L77.3077 83.5128L77.3987 84.4228ZM78.3937 83.6688H79.4467V89.9998H78.3937V83.6688ZM79.5637 80.9258V82.1088H78.2897V80.9258H79.5637ZM84.6002 83.5128C86.1169 83.5128 86.8752 84.3491 86.8752 86.0218V89.9998H85.8222V86.0868C85.8222 85.4974 85.7052 85.0684 85.4712 84.7998C85.2459 84.5311 84.8819 84.3968 84.3792 84.3968C83.7985 84.3968 83.3349 84.5744 82.9882 84.9298C82.6415 85.2851 82.4682 85.7661 82.4682 86.3728V89.9998H81.4152V83.6688H82.4552V84.7088C82.6632 84.3188 82.9535 84.0241 83.3262 83.8248C83.6989 83.6168 84.1235 83.5128 84.6002 83.5128ZM94.4719 83.6688V89.5708C94.4719 90.5154 94.2292 91.2261 93.7439 91.7028C93.2585 92.1881 92.5392 92.4308 91.5859 92.4308C90.4765 92.4308 89.5449 92.1448 88.7909 91.5728L89.1419 90.7928C89.5665 91.0701 89.9652 91.2694 90.3379 91.3908C90.7105 91.5121 91.1265 91.5728 91.5859 91.5728C92.1925 91.5728 92.6519 91.4081 92.9639 91.0788C93.2759 90.7581 93.4319 90.2858 93.4319 89.6618V88.5438C93.2499 88.9511 92.9682 89.2631 92.5869 89.4798C92.2142 89.6964 91.7722 89.8048 91.2609 89.8048C90.7062 89.8048 90.2122 89.6748 89.7789 89.4148C89.3542 89.1548 89.0205 88.7864 88.7779 88.3098C88.5439 87.8331 88.4269 87.2828 88.4269 86.6588C88.4269 86.0348 88.5439 85.4844 88.7779 85.0078C89.0205 84.5311 89.3542 84.1628 89.7789 83.9028C90.2122 83.6428 90.7062 83.5128 91.2609 83.5128C91.7635 83.5128 92.2012 83.6211 92.5739 83.8378C92.9465 84.0544 93.2282 84.3621 93.4189 84.7608V83.6688H94.4719ZM91.4689 88.9338C92.0755 88.9338 92.5522 88.7344 92.8989 88.3358C93.2455 87.9284 93.4189 87.3694 93.4189 86.6588C93.4189 85.9568 93.2455 85.4064 92.8989 85.0078C92.5609 84.6004 92.0842 84.3968 91.4689 84.3968C90.8535 84.3968 90.3682 84.6004 90.0129 85.0078C89.6662 85.4064 89.4929 85.9568 89.4929 86.6588C89.4929 87.3694 89.6662 87.9284 90.0129 88.3358C90.3682 88.7344 90.8535 88.9338 91.4689 88.9338ZM2.40576 115.856C1.98976 115.856 1.59976 115.756 1.23576 115.557C0.871756 115.349 0.581423 115.071 0.364756 114.725C0.156756 114.369 0.0527559 113.979 0.0527559 113.555C0.0527559 113.156 0.152423 112.779 0.351756 112.424C0.559756 112.068 0.841423 111.782 1.19676 111.566C1.56076 111.349 1.96376 111.241 2.40576 111.241C2.82176 111.241 3.20742 111.345 3.56276 111.553C3.92676 111.752 4.21709 112.029 4.43376 112.385C4.65042 112.731 4.75876 113.121 4.75876 113.555C4.75876 113.971 4.65042 114.356 4.43376 114.712C4.22576 115.058 3.93976 115.336 3.57576 115.544C3.22042 115.752 2.83042 115.856 2.40576 115.856ZM17.5147 117H16.3447L14.7847 114.062C14.594 113.706 14.3687 113.464 14.1087 113.334C13.8574 113.195 13.5107 113.126 13.0687 113.126H11.3527V117H10.2997V107.835H14.0697C15.0664 107.835 15.8247 108.056 16.3447 108.498C16.8734 108.94 17.1377 109.59 17.1377 110.448C17.1377 111.158 16.934 111.735 16.5267 112.177C16.128 112.61 15.556 112.883 14.8107 112.996C15.0447 113.065 15.2484 113.182 15.4217 113.347C15.6037 113.511 15.7684 113.732 15.9157 114.01L17.5147 117ZM13.9787 112.242C14.6894 112.242 15.218 112.094 15.5647 111.8C15.92 111.505 16.0977 111.059 16.0977 110.461C16.0977 109.871 15.9244 109.434 15.5777 109.148C15.231 108.862 14.698 108.719 13.9787 108.719H11.3527V112.242H13.9787ZM24.3598 113.997H19.7318C19.7665 114.733 19.9658 115.292 20.3298 115.674C20.6938 116.046 21.2095 116.233 21.8768 116.233C22.6135 116.233 23.2895 115.981 23.9048 115.479L24.2558 116.246C23.9785 116.506 23.6231 116.714 23.1898 116.87C22.7565 117.017 22.3145 117.091 21.8638 117.091C20.8758 117.091 20.0958 116.8 19.5238 116.22C18.9605 115.639 18.6788 114.837 18.6788 113.815C18.6788 113.165 18.8045 112.593 19.0558 112.099C19.3071 111.596 19.6581 111.206 20.1088 110.929C20.5681 110.651 21.0881 110.513 21.6688 110.513C22.5095 110.513 23.1681 110.79 23.6448 111.345C24.1215 111.891 24.3598 112.645 24.3598 113.607V113.997ZM21.6818 111.332C21.1271 111.332 20.6808 111.505 20.3428 111.852C20.0135 112.198 19.8185 112.688 19.7578 113.321H23.4368C23.4195 112.679 23.2591 112.19 22.9558 111.852C22.6525 111.505 22.2278 111.332 21.6818 111.332ZM29.0963 110.513C29.6509 110.513 30.1406 110.651 30.5653 110.929C30.9899 111.206 31.3193 111.596 31.5533 112.099C31.7873 112.593 31.9043 113.169 31.9043 113.828C31.9043 114.486 31.7873 115.063 31.5533 115.557C31.3193 116.042 30.9899 116.419 30.5653 116.688C30.1493 116.956 29.6596 117.091 29.0963 117.091C28.6023 117.091 28.1689 116.982 27.7963 116.766C27.4323 116.549 27.1549 116.241 26.9643 115.843V119.34H25.9113V110.669H26.9643V111.761C27.1549 111.362 27.4323 111.054 27.7963 110.838C28.1689 110.621 28.6023 110.513 29.0963 110.513ZM28.8883 116.22C29.5036 116.22 29.9803 116.012 30.3183 115.596C30.6563 115.18 30.8253 114.59 30.8253 113.828C30.8253 113.065 30.6563 112.471 30.3183 112.047C29.9803 111.613 29.5036 111.397 28.8883 111.397C28.2729 111.397 27.7963 111.605 27.4583 112.021C27.1289 112.437 26.9643 113.03 26.9643 113.802C26.9643 114.573 27.1289 115.171 27.4583 115.596C27.7963 116.012 28.2729 116.22 28.8883 116.22ZM33.4777 107.835H34.5307V117H33.4777V107.835ZM39.0732 110.513C39.8792 110.513 40.4772 110.721 40.8672 111.137C41.2658 111.544 41.4652 112.168 41.4652 113.009V117H40.4382V115.921C40.2735 116.293 40.0222 116.584 39.6842 116.792C39.3462 116.991 38.9562 117.091 38.5142 117.091C38.1068 117.091 37.7298 117.008 37.3832 116.844C37.0452 116.679 36.7765 116.449 36.5772 116.155C36.3778 115.86 36.2782 115.535 36.2782 115.18C36.2782 114.703 36.3995 114.335 36.6422 114.075C36.8848 113.806 37.2835 113.615 37.8382 113.503C38.3928 113.381 39.1642 113.321 40.1522 113.321H40.4382V112.892C40.4382 112.363 40.3298 111.982 40.1132 111.748C39.8965 111.505 39.5455 111.384 39.0602 111.384C38.3322 111.384 37.6085 111.609 36.8892 112.06L36.5382 111.293C36.8675 111.059 37.2618 110.872 37.7212 110.734C38.1892 110.586 38.6398 110.513 39.0732 110.513ZM38.6572 116.259C39.1772 116.259 39.6018 116.085 39.9312 115.739C40.2692 115.383 40.4382 114.928 40.4382 114.374V113.997H40.2042C39.4415 113.997 38.8608 114.031 38.4622 114.101C38.0635 114.161 37.7775 114.27 37.6042 114.426C37.4395 114.573 37.3572 114.794 37.3572 115.089C37.3572 115.427 37.4785 115.708 37.7212 115.934C37.9725 116.15 38.2845 116.259 38.6572 116.259ZM46.0707 117.091C45.4467 117.091 44.9051 116.956 44.4457 116.688C43.9864 116.419 43.6311 116.042 43.3797 115.557C43.1371 115.063 43.0157 114.486 43.0157 113.828C43.0157 113.169 43.1414 112.593 43.3927 112.099C43.6527 111.596 44.0124 111.206 44.4717 110.929C44.9397 110.651 45.4857 110.513 46.1097 110.513C46.5344 110.513 46.9504 110.591 47.3577 110.747C47.7651 110.894 48.0944 111.093 48.3457 111.345L47.9947 112.125C47.3967 111.639 46.7901 111.397 46.1747 111.397C45.5247 111.397 45.0177 111.609 44.6537 112.034C44.2897 112.458 44.1077 113.056 44.1077 113.828C44.1077 114.59 44.2897 115.18 44.6537 115.596C45.0177 116.012 45.5247 116.22 46.1747 116.22C46.7901 116.22 47.3967 115.977 47.9947 115.492L48.3457 116.272C48.0771 116.523 47.7391 116.722 47.3317 116.87C46.9244 117.017 46.5041 117.091 46.0707 117.091ZM49.6134 110.669H50.6664V117H49.6134V110.669ZM50.7834 107.926V109.109H49.5094V107.926H50.7834ZM55.8199 110.513C57.3366 110.513 58.0949 111.349 58.0949 113.022V117H57.0419V113.087C57.0419 112.497 56.9249 112.068 56.6909 111.8C56.4656 111.531 56.1016 111.397 55.5989 111.397C55.0182 111.397 54.5546 111.574 54.2079 111.93C53.8612 112.285 53.6879 112.766 53.6879 113.373V117H52.6349V110.669H53.6749V111.709C53.8829 111.319 54.1732 111.024 54.5459 110.825C54.9186 110.617 55.3432 110.513 55.8199 110.513ZM65.6916 110.669V116.571C65.6916 117.515 65.4489 118.226 64.9636 118.703C64.4783 119.188 63.7589 119.431 62.8056 119.431C61.6963 119.431 60.7646 119.145 60.0106 118.573L60.3616 117.793C60.7863 118.07 61.1849 118.269 61.5576 118.391C61.9303 118.512 62.3463 118.573 62.8056 118.573C63.4123 118.573 63.8716 118.408 64.1836 118.079C64.4956 117.758 64.6516 117.286 64.6516 116.662V115.544C64.4696 115.951 64.1879 116.263 63.8066 116.48C63.4339 116.696 62.9919 116.805 62.4806 116.805C61.9259 116.805 61.4319 116.675 60.9986 116.415C60.5739 116.155 60.2403 115.786 59.9976 115.31C59.7636 114.833 59.6466 114.283 59.6466 113.659C59.6466 113.035 59.7636 112.484 59.9976 112.008C60.2403 111.531 60.5739 111.163 60.9986 110.903C61.4319 110.643 61.9259 110.513 62.4806 110.513C62.9833 110.513 63.4209 110.621 63.7936 110.838C64.1663 111.054 64.4479 111.362 64.6386 111.761V110.669H65.6916ZM62.6886 115.934C63.2953 115.934 63.7719 115.734 64.1186 115.336C64.4653 114.928 64.6386 114.369 64.6386 113.659C64.6386 112.957 64.4653 112.406 64.1186 112.008C63.7806 111.6 63.3039 111.397 62.6886 111.397C62.0733 111.397 61.5879 111.6 61.2326 112.008C60.8859 112.406 60.7126 112.957 60.7126 113.659C60.7126 114.369 60.8859 114.928 61.2326 115.336C61.5879 115.734 62.0733 115.934 62.6886 115.934ZM74.1773 110.513C74.732 110.513 75.2217 110.651 75.6463 110.929C76.071 111.206 76.4003 111.596 76.6343 112.099C76.8683 112.593 76.9853 113.169 76.9853 113.828C76.9853 114.486 76.8683 115.063 76.6343 115.557C76.4003 116.042 76.071 116.419 75.6463 116.688C75.2303 116.956 74.7407 117.091 74.1773 117.091C73.6833 117.091 73.25 116.982 72.8773 116.766C72.5133 116.549 72.236 116.241 72.0453 115.843V119.34H70.9923V110.669H72.0453V111.761C72.236 111.362 72.5133 111.054 72.8773 110.838C73.25 110.621 73.6833 110.513 74.1773 110.513ZM73.9693 116.22C74.5847 116.22 75.0613 116.012 75.3993 115.596C75.7373 115.18 75.9063 114.59 75.9063 113.828C75.9063 113.065 75.7373 112.471 75.3993 112.047C75.0613 111.613 74.5847 111.397 73.9693 111.397C73.354 111.397 72.8773 111.605 72.5393 112.021C72.21 112.437 72.0453 113.03 72.0453 113.802C72.0453 114.573 72.21 115.171 72.5393 115.596C72.8773 116.012 73.354 116.22 73.9693 116.22ZM78.5587 107.835H79.6117V117H78.5587V107.835ZM86.9102 110.669V117H85.8832V115.921C85.6839 116.302 85.4022 116.592 85.0382 116.792C84.6829 116.991 84.2799 117.091 83.8292 117.091C83.0752 117.091 82.5076 116.883 82.1262 116.467C81.7449 116.042 81.5542 115.418 81.5542 114.595V110.669H82.6072V114.569C82.6072 115.132 82.7199 115.548 82.9452 115.817C83.1706 116.077 83.5259 116.207 84.0112 116.207C84.5659 116.207 85.0122 116.029 85.3502 115.674C85.6882 115.31 85.8572 114.833 85.8572 114.244V110.669H86.9102ZM95.9133 110.513C97.3173 110.513 98.0193 111.349 98.0193 113.022V117H96.9663V113.074C96.9663 112.493 96.8623 112.068 96.6543 111.8C96.455 111.531 96.13 111.397 95.6793 111.397C95.1507 111.397 94.7347 111.574 94.4313 111.93C94.128 112.285 93.9763 112.77 93.9763 113.386V117H92.9233V113.074C92.9233 112.484 92.8193 112.06 92.6113 111.8C92.4033 111.531 92.074 111.397 91.6233 111.397C91.0947 111.397 90.6787 111.574 90.3753 111.93C90.072 112.285 89.9203 112.77 89.9203 113.386V117H88.8673V110.669H89.9073V111.67C90.098 111.297 90.3623 111.011 90.7003 110.812C91.0383 110.612 91.4283 110.513 91.8703 110.513C92.8497 110.513 93.4953 110.929 93.8073 111.761C93.9893 111.371 94.2667 111.067 94.6393 110.851C95.012 110.625 95.4367 110.513 95.9133 110.513ZM103.123 110.513C103.677 110.513 104.167 110.647 104.592 110.916C105.016 111.184 105.346 111.566 105.58 112.06C105.814 112.554 105.931 113.126 105.931 113.776C105.931 114.434 105.814 115.015 105.58 115.518C105.346 116.012 105.016 116.397 104.592 116.675C104.167 116.952 103.677 117.091 103.123 117.091C102.629 117.091 102.195 116.982 101.823 116.766C101.459 116.549 101.181 116.241 100.991 115.843V117H99.9376V107.835H100.991V111.761C101.181 111.362 101.459 111.054 101.823 110.838C102.195 110.621 102.629 110.513 103.123 110.513ZM102.915 116.22C103.53 116.22 104.007 116.007 104.345 115.583C104.683 115.149 104.852 114.547 104.852 113.776C104.852 113.022 104.683 112.437 104.345 112.021C104.007 111.605 103.53 111.397 102.915 111.397C102.299 111.397 101.823 111.605 101.485 112.021C101.155 112.437 100.991 113.03 100.991 113.802C100.991 114.573 101.155 115.171 101.485 115.596C101.823 116.012 102.299 116.22 102.915 116.22ZM107.504 110.669H108.557V117H107.504V110.669ZM108.674 107.926V109.109H107.4V107.926H108.674ZM113.711 110.513C115.227 110.513 115.986 111.349 115.986 113.022V117H114.933V113.087C114.933 112.497 114.816 112.068 114.582 111.8C114.356 111.531 113.992 111.397 113.49 111.397C112.909 111.397 112.445 111.574 112.099 111.93C111.752 112.285 111.579 112.766 111.579 113.373V117H110.526V110.669H111.566V111.709C111.774 111.319 112.064 111.024 112.437 110.825C112.809 110.617 113.234 110.513 113.711 110.513ZM123.582 110.669V116.571C123.582 117.515 123.34 118.226 122.854 118.703C122.369 119.188 121.65 119.431 120.696 119.431C119.587 119.431 118.655 119.145 117.901 118.573L118.252 117.793C118.677 118.07 119.076 118.269 119.448 118.391C119.821 118.512 120.237 118.573 120.696 118.573C121.303 118.573 121.762 118.408 122.074 118.079C122.386 117.758 122.542 117.286 122.542 116.662V115.544C122.36 115.951 122.079 116.263 121.697 116.48C121.325 116.696 120.883 116.805 120.371 116.805C119.817 116.805 119.323 116.675 118.889 116.415C118.465 116.155 118.131 115.786 117.888 115.31C117.654 114.833 117.537 114.283 117.537 113.659C117.537 113.035 117.654 112.484 117.888 112.008C118.131 111.531 118.465 111.163 118.889 110.903C119.323 110.643 119.817 110.513 120.371 110.513C120.874 110.513 121.312 110.621 121.684 110.838C122.057 111.054 122.339 111.362 122.529 111.761V110.669H123.582ZM120.579 115.934C121.186 115.934 121.663 115.734 122.009 115.336C122.356 114.928 122.529 114.369 122.529 113.659C122.529 112.957 122.356 112.406 122.009 112.008C121.671 111.6 121.195 111.397 120.579 111.397C119.964 111.397 119.479 111.6 119.123 112.008C118.777 112.406 118.603 112.957 118.603 113.659C118.603 114.369 118.777 114.928 119.123 115.336C119.479 115.734 119.964 115.934 120.579 115.934ZM2.40576 141.856C1.98976 141.856 1.59976 141.756 1.23576 141.557C0.871756 141.349 0.581423 141.071 0.364756 140.725C0.156756 140.369 0.0527559 139.979 0.0527559 139.555C0.0527559 139.156 0.152423 138.779 0.351756 138.424C0.559756 138.068 0.841423 137.782 1.19676 137.566C1.56076 137.349 1.96376 137.241 2.40576 137.241C2.82176 137.241 3.20742 137.345 3.56276 137.553C3.92676 137.752 4.21709 138.029 4.43376 138.385C4.65042 138.731 4.75876 139.121 4.75876 139.555C4.75876 139.971 4.65042 140.356 4.43376 140.712C4.22576 141.058 3.93976 141.336 3.57576 141.544C3.22042 141.752 2.83042 141.856 2.40576 141.856ZM17.5147 143H16.3447L14.7847 140.062C14.594 139.706 14.3687 139.464 14.1087 139.334C13.8574 139.195 13.5107 139.126 13.0687 139.126H11.3527V143H10.2997V133.835H14.0697C15.0664 133.835 15.8247 134.056 16.3447 134.498C16.8734 134.94 17.1377 135.59 17.1377 136.448C17.1377 137.158 16.934 137.735 16.5267 138.177C16.128 138.61 15.556 138.883 14.8107 138.996C15.0447 139.065 15.2484 139.182 15.4217 139.347C15.6037 139.511 15.7684 139.732 15.9157 140.01L17.5147 143ZM13.9787 138.242C14.6894 138.242 15.218 138.094 15.5647 137.8C15.92 137.505 16.0977 137.059 16.0977 136.461C16.0977 135.871 15.9244 135.434 15.5777 135.148C15.231 134.862 14.698 134.719 13.9787 134.719H11.3527V138.242H13.9787ZM24.3598 139.997H19.7318C19.7665 140.733 19.9658 141.292 20.3298 141.674C20.6938 142.046 21.2095 142.233 21.8768 142.233C22.6135 142.233 23.2895 141.981 23.9048 141.479L24.2558 142.246C23.9785 142.506 23.6231 142.714 23.1898 142.87C22.7565 143.017 22.3145 143.091 21.8638 143.091C20.8758 143.091 20.0958 142.8 19.5238 142.22C18.9605 141.639 18.6788 140.837 18.6788 139.815C18.6788 139.165 18.8045 138.593 19.0558 138.099C19.3071 137.596 19.6581 137.206 20.1088 136.929C20.5681 136.651 21.0881 136.513 21.6688 136.513C22.5095 136.513 23.1681 136.79 23.6448 137.345C24.1215 137.891 24.3598 138.645 24.3598 139.607V139.997ZM21.6818 137.332C21.1271 137.332 20.6808 137.505 20.3428 137.852C20.0135 138.198 19.8185 138.688 19.7578 139.321H23.4368C23.4195 138.679 23.2591 138.19 22.9558 137.852C22.6525 137.505 22.2278 137.332 21.6818 137.332ZM29.0963 136.513C29.6509 136.513 30.1406 136.651 30.5653 136.929C30.9899 137.206 31.3193 137.596 31.5533 138.099C31.7873 138.593 31.9043 139.169 31.9043 139.828C31.9043 140.486 31.7873 141.063 31.5533 141.557C31.3193 142.042 30.9899 142.419 30.5653 142.688C30.1493 142.956 29.6596 143.091 29.0963 143.091C28.6023 143.091 28.1689 142.982 27.7963 142.766C27.4323 142.549 27.1549 142.241 26.9643 141.843V145.34H25.9113V136.669H26.9643V137.761C27.1549 137.362 27.4323 137.054 27.7963 136.838C28.1689 136.621 28.6023 136.513 29.0963 136.513ZM28.8883 142.22C29.5036 142.22 29.9803 142.012 30.3183 141.596C30.6563 141.18 30.8253 140.59 30.8253 139.828C30.8253 139.065 30.6563 138.471 30.3183 138.047C29.9803 137.613 29.5036 137.397 28.8883 137.397C28.2729 137.397 27.7963 137.605 27.4583 138.021C27.1289 138.437 26.9643 139.03 26.9643 139.802C26.9643 140.573 27.1289 141.171 27.4583 141.596C27.7963 142.012 28.2729 142.22 28.8883 142.22ZM33.4777 133.835H34.5307V143H33.4777V133.835ZM39.0732 136.513C39.8792 136.513 40.4772 136.721 40.8672 137.137C41.2658 137.544 41.4652 138.168 41.4652 139.009V143H40.4382V141.921C40.2735 142.293 40.0222 142.584 39.6842 142.792C39.3462 142.991 38.9562 143.091 38.5142 143.091C38.1068 143.091 37.7298 143.008 37.3832 142.844C37.0452 142.679 36.7765 142.449 36.5772 142.155C36.3778 141.86 36.2782 141.535 36.2782 141.18C36.2782 140.703 36.3995 140.335 36.6422 140.075C36.8848 139.806 37.2835 139.615 37.8382 139.503C38.3928 139.381 39.1642 139.321 40.1522 139.321H40.4382V138.892C40.4382 138.363 40.3298 137.982 40.1132 137.748C39.8965 137.505 39.5455 137.384 39.0602 137.384C38.3322 137.384 37.6085 137.609 36.8892 138.06L36.5382 137.293C36.8675 137.059 37.2618 136.872 37.7212 136.734C38.1892 136.586 38.6398 136.513 39.0732 136.513ZM38.6572 142.259C39.1772 142.259 39.6018 142.085 39.9312 141.739C40.2692 141.383 40.4382 140.928 40.4382 140.374V139.997H40.2042C39.4415 139.997 38.8608 140.031 38.4622 140.101C38.0635 140.161 37.7775 140.27 37.6042 140.426C37.4395 140.573 37.3572 140.794 37.3572 141.089C37.3572 141.427 37.4785 141.708 37.7212 141.934C37.9725 142.15 38.2845 142.259 38.6572 142.259ZM46.0707 143.091C45.4467 143.091 44.9051 142.956 44.4457 142.688C43.9864 142.419 43.6311 142.042 43.3797 141.557C43.1371 141.063 43.0157 140.486 43.0157 139.828C43.0157 139.169 43.1414 138.593 43.3927 138.099C43.6527 137.596 44.0124 137.206 44.4717 136.929C44.9397 136.651 45.4857 136.513 46.1097 136.513C46.5344 136.513 46.9504 136.591 47.3577 136.747C47.7651 136.894 48.0944 137.093 48.3457 137.345L47.9947 138.125C47.3967 137.639 46.7901 137.397 46.1747 137.397C45.5247 137.397 45.0177 137.609 44.6537 138.034C44.2897 138.458 44.1077 139.056 44.1077 139.828C44.1077 140.59 44.2897 141.18 44.6537 141.596C45.0177 142.012 45.5247 142.22 46.1747 142.22C46.7901 142.22 47.3967 141.977 47.9947 141.492L48.3457 142.272C48.0771 142.523 47.7391 142.722 47.3317 142.87C46.9244 143.017 46.5041 143.091 46.0707 143.091ZM49.6134 136.669H50.6664V143H49.6134V136.669ZM50.7834 133.926V135.109H49.5094V133.926H50.7834ZM55.8199 136.513C57.3366 136.513 58.0949 137.349 58.0949 139.022V143H57.0419V139.087C57.0419 138.497 56.9249 138.068 56.6909 137.8C56.4656 137.531 56.1016 137.397 55.5989 137.397C55.0182 137.397 54.5546 137.574 54.2079 137.93C53.8612 138.285 53.6879 138.766 53.6879 139.373V143H52.6349V136.669H53.6749V137.709C53.8829 137.319 54.1732 137.024 54.5459 136.825C54.9186 136.617 55.3432 136.513 55.8199 136.513ZM65.6916 136.669V142.571C65.6916 143.515 65.4489 144.226 64.9636 144.703C64.4783 145.188 63.7589 145.431 62.8056 145.431C61.6963 145.431 60.7646 145.145 60.0106 144.573L60.3616 143.793C60.7863 144.07 61.1849 144.269 61.5576 144.391C61.9303 144.512 62.3463 144.573 62.8056 144.573C63.4123 144.573 63.8716 144.408 64.1836 144.079C64.4956 143.758 64.6516 143.286 64.6516 142.662V141.544C64.4696 141.951 64.1879 142.263 63.8066 142.48C63.4339 142.696 62.9919 142.805 62.4806 142.805C61.9259 142.805 61.4319 142.675 60.9986 142.415C60.5739 142.155 60.2403 141.786 59.9976 141.31C59.7636 140.833 59.6466 140.283 59.6466 139.659C59.6466 139.035 59.7636 138.484 59.9976 138.008C60.2403 137.531 60.5739 137.163 60.9986 136.903C61.4319 136.643 61.9259 136.513 62.4806 136.513C62.9833 136.513 63.4209 136.621 63.7936 136.838C64.1663 137.054 64.4479 137.362 64.6386 137.761V136.669H65.6916ZM62.6886 141.934C63.2953 141.934 63.7719 141.734 64.1186 141.336C64.4653 140.928 64.6386 140.369 64.6386 139.659C64.6386 138.957 64.4653 138.406 64.1186 138.008C63.7806 137.6 63.3039 137.397 62.6886 137.397C62.0733 137.397 61.5879 137.6 61.2326 138.008C60.8859 138.406 60.7126 138.957 60.7126 139.659C60.7126 140.369 60.8859 140.928 61.2326 141.336C61.5879 141.734 62.0733 141.934 62.6886 141.934ZM73.1373 143.091C72.0713 143.091 71.2263 142.818 70.6023 142.272L70.9533 141.492C71.2913 141.76 71.6337 141.955 71.9803 142.077C72.3357 142.189 72.7343 142.246 73.1763 142.246C73.6443 142.246 73.9997 142.168 74.2423 142.012C74.4937 141.847 74.6193 141.613 74.6193 141.31C74.6193 141.058 74.537 140.859 74.3723 140.712C74.2077 140.564 73.9347 140.447 73.5533 140.361L72.4873 140.114C71.95 139.992 71.5383 139.784 71.2523 139.49C70.9663 139.195 70.8233 138.831 70.8233 138.398C70.8233 137.834 71.0443 137.379 71.4863 137.033C71.9283 136.686 72.5177 136.513 73.2543 136.513C73.6963 136.513 74.1167 136.586 74.5153 136.734C74.914 136.872 75.2477 137.076 75.5163 137.345L75.1653 138.112C74.5847 137.618 73.9477 137.371 73.2543 137.371C72.8123 137.371 72.4657 137.457 72.2143 137.631C71.9717 137.795 71.8503 138.029 71.8503 138.333C71.8503 138.584 71.924 138.788 72.0713 138.944C72.2273 139.091 72.4743 139.204 72.8123 139.282L73.8913 139.542C74.4807 139.68 74.9183 139.893 75.2043 140.179C75.4903 140.456 75.6333 140.82 75.6333 141.271C75.6333 141.825 75.408 142.267 74.9573 142.597C74.5153 142.926 73.9087 143.091 73.1373 143.091ZM79.8644 143.091C79.2664 143.091 78.7378 142.956 78.2784 142.688C77.8278 142.419 77.4768 142.038 77.2254 141.544C76.9828 141.041 76.8614 140.46 76.8614 139.802C76.8614 139.143 76.9828 138.567 77.2254 138.073C77.4768 137.57 77.8278 137.184 78.2784 136.916C78.7378 136.647 79.2664 136.513 79.8644 136.513C80.4624 136.513 80.9911 136.647 81.4504 136.916C81.9098 137.184 82.2608 137.57 82.5034 138.073C82.7548 138.567 82.8804 139.143 82.8804 139.802C82.8804 140.46 82.7548 141.041 82.5034 141.544C82.2608 142.038 81.9098 142.419 81.4504 142.688C80.9911 142.956 80.4624 143.091 79.8644 143.091ZM79.8644 142.22C80.4884 142.22 80.9651 142.016 81.2944 141.609C81.6324 141.193 81.8014 140.59 81.8014 139.802C81.8014 139.03 81.6324 138.437 81.2944 138.021C80.9564 137.596 80.4798 137.384 79.8644 137.384C79.2491 137.384 78.7724 137.596 78.4344 138.021C78.0964 138.437 77.9274 139.03 77.9274 139.802C77.9274 140.582 78.0921 141.18 78.4214 141.596C78.7594 142.012 79.2404 142.22 79.8644 142.22ZM87.1274 143.091C86.5034 143.091 85.9617 142.956 85.5024 142.688C85.043 142.419 84.6877 142.042 84.4364 141.557C84.1937 141.063 84.0724 140.486 84.0724 139.828C84.0724 139.169 84.198 138.593 84.4494 138.099C84.7094 137.596 85.069 137.206 85.5284 136.929C85.9964 136.651 86.5424 136.513 87.1664 136.513C87.591 136.513 88.007 136.591 88.4144 136.747C88.8217 136.894 89.151 137.093 89.4024 137.345L89.0514 138.125C88.4534 137.639 87.8467 137.397 87.2314 137.397C86.5814 137.397 86.0744 137.609 85.7104 138.034C85.3464 138.458 85.1644 139.056 85.1644 139.828C85.1644 140.59 85.3464 141.18 85.7104 141.596C86.0744 142.012 86.5814 142.22 87.2314 142.22C87.8467 142.22 88.4534 141.977 89.0514 141.492L89.4024 142.272C89.1337 142.523 88.7957 142.722 88.3884 142.87C87.981 143.017 87.5607 143.091 87.1274 143.091ZM94.9471 143L91.7231 139.971V143H90.6701V133.835H91.7231V139.542L94.6741 136.682H96.0131L92.8671 139.711L96.3121 143H94.9471ZM102.36 139.997H97.7318C97.7665 140.733 97.9658 141.292 98.3298 141.674C98.6938 142.046 99.2095 142.233 99.8768 142.233C100.613 142.233 101.289 141.981 101.905 141.479L102.256 142.246C101.978 142.506 101.623 142.714 101.19 142.87C100.756 143.017 100.314 143.091 99.8638 143.091C98.8758 143.091 98.0958 142.8 97.5238 142.22C96.9605 141.639 96.6788 140.837 96.6788 139.815C96.6788 139.165 96.8045 138.593 97.0558 138.099C97.3071 137.596 97.6581 137.206 98.1088 136.929C98.5681 136.651 99.0881 136.513 99.6688 136.513C100.509 136.513 101.168 136.79 101.645 137.345C102.121 137.891 102.36 138.645 102.36 139.607V139.997ZM99.6818 137.332C99.1271 137.332 98.6808 137.505 98.3428 137.852C98.0135 138.198 97.8185 138.688 97.7578 139.321H101.437C101.419 138.679 101.259 138.19 100.956 137.852C100.652 137.505 100.228 137.332 99.6818 137.332ZM106.655 142.246C106.846 142.246 107.037 142.233 107.227 142.207L107.175 143.039C106.976 143.073 106.759 143.091 106.525 143.091C105.763 143.091 105.186 142.891 104.796 142.493C104.415 142.094 104.224 141.539 104.224 140.829V137.501H102.989V136.669H104.224V134.745H105.277V136.669H107.071V137.501H105.277V140.751C105.277 141.747 105.737 142.246 106.655 142.246ZM110.436 143.091C109.37 143.091 108.525 142.818 107.901 142.272L108.252 141.492C108.59 141.76 108.932 141.955 109.279 142.077C109.634 142.189 110.033 142.246 110.475 142.246C110.943 142.246 111.298 142.168 111.541 142.012C111.792 141.847 111.918 141.613 111.918 141.31C111.918 141.058 111.836 140.859 111.671 140.712C111.506 140.564 111.233 140.447 110.852 140.361L109.786 140.114C109.249 139.992 108.837 139.784 108.551 139.49C108.265 139.195 108.122 138.831 108.122 138.398C108.122 137.834 108.343 137.379 108.785 137.033C109.227 136.686 109.816 136.513 110.553 136.513C110.995 136.513 111.415 136.586 111.814 136.734C112.213 136.872 112.546 137.076 112.815 137.345L112.464 138.112C111.883 137.618 111.246 137.371 110.553 137.371C110.111 137.371 109.764 137.457 109.513 137.631C109.27 137.795 109.149 138.029 109.149 138.333C109.149 138.584 109.223 138.788 109.37 138.944C109.526 139.091 109.773 139.204 110.111 139.282L111.19 139.542C111.779 139.68 112.217 139.893 112.503 140.179C112.789 140.456 112.932 140.82 112.932 141.271C112.932 141.825 112.707 142.267 112.256 142.597C111.814 142.926 111.207 143.091 110.436 143.091ZM120.463 136.513C121.269 136.513 121.867 136.721 122.257 137.137C122.655 137.544 122.855 138.168 122.855 139.009V143H121.828V141.921C121.663 142.293 121.412 142.584 121.074 142.792C120.736 142.991 120.346 143.091 119.904 143.091C119.496 143.091 119.119 143.008 118.773 142.844C118.435 142.679 118.166 142.449 117.967 142.155C117.767 141.86 117.668 141.535 117.668 141.18C117.668 140.703 117.789 140.335 118.032 140.075C118.274 139.806 118.673 139.615 119.228 139.503C119.782 139.381 120.554 139.321 121.542 139.321H121.828V138.892C121.828 138.363 121.719 137.982 121.503 137.748C121.286 137.505 120.935 137.384 120.45 137.384C119.722 137.384 118.998 137.609 118.279 138.06L117.928 137.293C118.257 137.059 118.651 136.872 119.111 136.734C119.579 136.586 120.029 136.513 120.463 136.513ZM120.047 142.259C120.567 142.259 120.991 142.085 121.321 141.739C121.659 141.383 121.828 140.928 121.828 140.374V139.997H121.594C120.831 139.997 120.25 140.031 119.852 140.101C119.453 140.161 119.167 140.27 118.994 140.426C118.829 140.573 118.747 140.794 118.747 141.089C118.747 141.427 118.868 141.708 119.111 141.934C119.362 142.15 119.674 142.259 120.047 142.259ZM127.967 136.513C129.484 136.513 130.242 137.349 130.242 139.022V143H129.189V139.087C129.189 138.497 129.072 138.068 128.838 137.8C128.613 137.531 128.249 137.397 127.746 137.397C127.166 137.397 126.702 137.574 126.355 137.93C126.009 138.285 125.835 138.766 125.835 139.373V143H124.782V136.669H125.822V137.709C126.03 137.319 126.321 137.024 126.693 136.825C127.066 136.617 127.491 136.513 127.967 136.513ZM137.787 133.835V143H136.734V141.843C136.543 142.241 136.262 142.549 135.889 142.766C135.525 142.982 135.096 143.091 134.602 143.091C134.047 143.091 133.558 142.952 133.133 142.675C132.708 142.397 132.379 142.012 132.145 141.518C131.911 141.015 131.794 140.434 131.794 139.776C131.794 139.126 131.911 138.554 132.145 138.06C132.379 137.566 132.708 137.184 133.133 136.916C133.558 136.647 134.047 136.513 134.602 136.513C135.096 136.513 135.525 136.621 135.889 136.838C136.262 137.054 136.543 137.362 136.734 137.761V133.835H137.787ZM134.81 142.22C135.425 142.22 135.898 142.012 136.227 141.596C136.565 141.171 136.734 140.573 136.734 139.802C136.734 139.03 136.565 138.437 136.227 138.021C135.898 137.605 135.425 137.397 134.81 137.397C134.195 137.397 133.714 137.605 133.367 138.021C133.029 138.437 132.86 139.022 132.86 139.776C132.86 140.547 133.029 141.149 133.367 141.583C133.714 142.007 134.195 142.22 134.81 142.22ZM145.234 143.091C144.168 143.091 143.323 142.818 142.699 142.272L143.05 141.492C143.388 141.76 143.73 141.955 144.077 142.077C144.432 142.189 144.831 142.246 145.273 142.246C145.741 142.246 146.096 142.168 146.339 142.012C146.59 141.847 146.716 141.613 146.716 141.31C146.716 141.058 146.634 140.859 146.469 140.712C146.304 140.564 146.031 140.447 145.65 140.361L144.584 140.114C144.047 139.992 143.635 139.784 143.349 139.49C143.063 139.195 142.92 138.831 142.92 138.398C142.92 137.834 143.141 137.379 143.583 137.033C144.025 136.686 144.614 136.513 145.351 136.513C145.793 136.513 146.213 136.586 146.612 136.734C147.011 136.872 147.344 137.076 147.613 137.345L147.262 138.112C146.681 137.618 146.044 137.371 145.351 137.371C144.909 137.371 144.562 137.457 144.311 137.631C144.068 137.795 143.947 138.029 143.947 138.333C143.947 138.584 144.021 138.788 144.168 138.944C144.324 139.091 144.571 139.204 144.909 139.282L145.988 139.542C146.577 139.68 147.015 139.893 147.301 140.179C147.587 140.456 147.73 140.82 147.73 141.271C147.73 141.825 147.505 142.267 147.054 142.597C146.612 142.926 146.005 143.091 145.234 143.091ZM158.867 136.669L156.514 143H155.5L153.719 138.099L151.925 143H150.924L148.571 136.669H149.663L151.457 141.752L153.29 136.669H154.2L156.007 141.752L157.814 136.669H158.867ZM160.164 136.669H161.217V143H160.164V136.669ZM161.334 133.926V135.109H160.06V133.926H161.334ZM165.968 142.246C166.158 142.246 166.349 142.233 166.54 142.207L166.488 143.039C166.288 143.073 166.072 143.091 165.838 143.091C165.075 143.091 164.499 142.891 164.109 142.493C163.727 142.094 163.537 141.539 163.537 140.829V137.501H162.302V136.669H163.537V134.745H164.59V136.669H166.384V137.501H164.59V140.751C164.59 141.747 165.049 142.246 165.968 142.246ZM170.282 143.091C169.658 143.091 169.116 142.956 168.657 142.688C168.197 142.419 167.842 142.042 167.591 141.557C167.348 141.063 167.227 140.486 167.227 139.828C167.227 139.169 167.352 138.593 167.604 138.099C167.864 137.596 168.223 137.206 168.683 136.929C169.151 136.651 169.697 136.513 170.321 136.513C170.745 136.513 171.161 136.591 171.569 136.747C171.976 136.894 172.305 137.093 172.557 137.345L172.206 138.125C171.608 137.639 171.001 137.397 170.386 137.397C169.736 137.397 169.229 137.609 168.865 138.034C168.501 138.458 168.319 139.056 168.319 139.828C168.319 140.59 168.501 141.18 168.865 141.596C169.229 142.012 169.736 142.22 170.386 142.22C171.001 142.22 171.608 141.977 172.206 141.492L172.557 142.272C172.288 142.523 171.95 142.722 171.543 142.87C171.135 143.017 170.715 143.091 170.282 143.091ZM177.009 136.513C178.526 136.513 179.284 137.349 179.284 139.022V143H178.231V139.087C178.231 138.497 178.114 138.068 177.88 137.8C177.655 137.531 177.291 137.397 176.788 137.397C176.208 137.397 175.744 137.574 175.397 137.93C175.051 138.285 174.877 138.766 174.877 139.373V143H173.824V133.835H174.877V137.683C175.085 137.301 175.371 137.011 175.735 136.812C176.108 136.612 176.533 136.513 177.009 136.513ZM186.517 139.997H181.889C181.924 140.733 182.123 141.292 182.487 141.674C182.851 142.046 183.367 142.233 184.034 142.233C184.771 142.233 185.447 141.981 186.062 141.479L186.413 142.246C186.136 142.506 185.78 142.714 185.347 142.87C184.914 143.017 184.472 143.091 184.021 143.091C183.033 143.091 182.253 142.8 181.681 142.22C181.118 141.639 180.836 140.837 180.836 139.815C180.836 139.165 180.962 138.593 181.213 138.099C181.464 137.596 181.815 137.206 182.266 136.929C182.725 136.651 183.245 136.513 183.826 136.513C184.667 136.513 185.325 136.79 185.802 137.345C186.279 137.891 186.517 138.645 186.517 139.607V139.997ZM183.839 137.332C183.284 137.332 182.838 137.505 182.5 137.852C182.171 138.198 181.976 138.688 181.915 139.321H185.594C185.577 138.679 185.416 138.19 185.113 137.852C184.81 137.505 184.385 137.332 183.839 137.332ZM190.214 143.091C189.148 143.091 188.303 142.818 187.679 142.272L188.03 141.492C188.368 141.76 188.71 141.955 189.057 142.077C189.412 142.189 189.811 142.246 190.253 142.246C190.721 142.246 191.076 142.168 191.319 142.012C191.57 141.847 191.696 141.613 191.696 141.31C191.696 141.058 191.613 140.859 191.449 140.712C191.284 140.564 191.011 140.447 190.63 140.361L189.564 140.114C189.026 139.992 188.615 139.784 188.329 139.49C188.043 139.195 187.9 138.831 187.9 138.398C187.9 137.834 188.121 137.379 188.563 137.033C189.005 136.686 189.594 136.513 190.331 136.513C190.773 136.513 191.193 136.586 191.592 136.734C191.99 136.872 192.324 137.076 192.593 137.345L192.242 138.112C191.661 137.618 191.024 137.371 190.331 137.371C189.889 137.371 189.542 137.457 189.291 137.631C189.048 137.795 188.927 138.029 188.927 138.333C188.927 138.584 189 138.788 189.148 138.944C189.304 139.091 189.551 139.204 189.889 139.282L190.968 139.542C191.557 139.68 191.995 139.893 192.281 140.179C192.567 140.456 192.71 140.82 192.71 141.271C192.71 141.825 192.484 142.267 192.034 142.597C191.592 142.926 190.985 143.091 190.214 143.091ZM2.40576 168.856C1.98976 168.856 1.59976 168.756 1.23576 168.557C0.871756 168.349 0.581423 168.071 0.364756 167.725C0.156756 167.369 0.0527559 166.979 0.0527559 166.555C0.0527559 166.156 0.152423 165.779 0.351756 165.424C0.559756 165.068 0.841423 164.782 1.19676 164.566C1.56076 164.349 1.96376 164.241 2.40576 164.241C2.82176 164.241 3.20742 164.345 3.56276 164.553C3.92676 164.752 4.21709 165.029 4.43376 165.385C4.65042 165.731 4.75876 166.121 4.75876 166.555C4.75876 166.971 4.65042 167.356 4.43376 167.712C4.22576 168.058 3.93976 168.336 3.57576 168.544C3.22042 168.752 2.83042 168.856 2.40576 168.856ZM17.5147 170H16.3447L14.7847 167.062C14.594 166.706 14.3687 166.464 14.1087 166.334C13.8574 166.195 13.5107 166.126 13.0687 166.126H11.3527V170H10.2997V160.835H14.0697C15.0664 160.835 15.8247 161.056 16.3447 161.498C16.8734 161.94 17.1377 162.59 17.1377 163.448C17.1377 164.158 16.934 164.735 16.5267 165.177C16.128 165.61 15.556 165.883 14.8107 165.996C15.0447 166.065 15.2484 166.182 15.4217 166.347C15.6037 166.511 15.7684 166.732 15.9157 167.01L17.5147 170ZM13.9787 165.242C14.6894 165.242 15.218 165.094 15.5647 164.8C15.92 164.505 16.0977 164.059 16.0977 163.461C16.0977 162.871 15.9244 162.434 15.5777 162.148C15.231 161.862 14.698 161.719 13.9787 161.719H11.3527V165.242H13.9787ZM24.3598 166.997H19.7318C19.7665 167.733 19.9658 168.292 20.3298 168.674C20.6938 169.046 21.2095 169.233 21.8768 169.233C22.6135 169.233 23.2895 168.981 23.9048 168.479L24.2558 169.246C23.9785 169.506 23.6231 169.714 23.1898 169.87C22.7565 170.017 22.3145 170.091 21.8638 170.091C20.8758 170.091 20.0958 169.8 19.5238 169.22C18.9605 168.639 18.6788 167.837 18.6788 166.815C18.6788 166.165 18.8045 165.593 19.0558 165.099C19.3071 164.596 19.6581 164.206 20.1088 163.929C20.5681 163.651 21.0881 163.513 21.6688 163.513C22.5095 163.513 23.1681 163.79 23.6448 164.345C24.1215 164.891 24.3598 165.645 24.3598 166.607V166.997ZM21.6818 164.332C21.1271 164.332 20.6808 164.505 20.3428 164.852C20.0135 165.198 19.8185 165.688 19.7578 166.321H23.4368C23.4195 165.679 23.2591 165.19 22.9558 164.852C22.6525 164.505 22.2278 164.332 21.6818 164.332ZM29.0963 163.513C29.6509 163.513 30.1406 163.651 30.5653 163.929C30.9899 164.206 31.3193 164.596 31.5533 165.099C31.7873 165.593 31.9043 166.169 31.9043 166.828C31.9043 167.486 31.7873 168.063 31.5533 168.557C31.3193 169.042 30.9899 169.419 30.5653 169.688C30.1493 169.956 29.6596 170.091 29.0963 170.091C28.6023 170.091 28.1689 169.982 27.7963 169.766C27.4323 169.549 27.1549 169.241 26.9643 168.843V172.34H25.9113V163.669H26.9643V164.761C27.1549 164.362 27.4323 164.054 27.7963 163.838C28.1689 163.621 28.6023 163.513 29.0963 163.513ZM28.8883 169.22C29.5036 169.22 29.9803 169.012 30.3183 168.596C30.6563 168.18 30.8253 167.59 30.8253 166.828C30.8253 166.065 30.6563 165.471 30.3183 165.047C29.9803 164.613 29.5036 164.397 28.8883 164.397C28.2729 164.397 27.7963 164.605 27.4583 165.021C27.1289 165.437 26.9643 166.03 26.9643 166.802C26.9643 167.573 27.1289 168.171 27.4583 168.596C27.7963 169.012 28.2729 169.22 28.8883 169.22ZM33.4777 160.835H34.5307V170H33.4777V160.835ZM39.0732 163.513C39.8792 163.513 40.4772 163.721 40.8672 164.137C41.2658 164.544 41.4652 165.168 41.4652 166.009V170H40.4382V168.921C40.2735 169.293 40.0222 169.584 39.6842 169.792C39.3462 169.991 38.9562 170.091 38.5142 170.091C38.1068 170.091 37.7298 170.008 37.3832 169.844C37.0452 169.679 36.7765 169.449 36.5772 169.155C36.3778 168.86 36.2782 168.535 36.2782 168.18C36.2782 167.703 36.3995 167.335 36.6422 167.075C36.8848 166.806 37.2835 166.615 37.8382 166.503C38.3928 166.381 39.1642 166.321 40.1522 166.321H40.4382V165.892C40.4382 165.363 40.3298 164.982 40.1132 164.748C39.8965 164.505 39.5455 164.384 39.0602 164.384C38.3322 164.384 37.6085 164.609 36.8892 165.06L36.5382 164.293C36.8675 164.059 37.2618 163.872 37.7212 163.734C38.1892 163.586 38.6398 163.513 39.0732 163.513ZM38.6572 169.259C39.1772 169.259 39.6018 169.085 39.9312 168.739C40.2692 168.383 40.4382 167.928 40.4382 167.374V166.997H40.2042C39.4415 166.997 38.8608 167.031 38.4622 167.101C38.0635 167.161 37.7775 167.27 37.6042 167.426C37.4395 167.573 37.3572 167.794 37.3572 168.089C37.3572 168.427 37.4785 168.708 37.7212 168.934C37.9725 169.15 38.2845 169.259 38.6572 169.259ZM46.0707 170.091C45.4467 170.091 44.9051 169.956 44.4457 169.688C43.9864 169.419 43.6311 169.042 43.3797 168.557C43.1371 168.063 43.0157 167.486 43.0157 166.828C43.0157 166.169 43.1414 165.593 43.3927 165.099C43.6527 164.596 44.0124 164.206 44.4717 163.929C44.9397 163.651 45.4857 163.513 46.1097 163.513C46.5344 163.513 46.9504 163.591 47.3577 163.747C47.7651 163.894 48.0944 164.093 48.3457 164.345L47.9947 165.125C47.3967 164.639 46.7901 164.397 46.1747 164.397C45.5247 164.397 45.0177 164.609 44.6537 165.034C44.2897 165.458 44.1077 166.056 44.1077 166.828C44.1077 167.59 44.2897 168.18 44.6537 168.596C45.0177 169.012 45.5247 169.22 46.1747 169.22C46.7901 169.22 47.3967 168.977 47.9947 168.492L48.3457 169.272C48.0771 169.523 47.7391 169.722 47.3317 169.87C46.9244 170.017 46.5041 170.091 46.0707 170.091ZM49.6134 163.669H50.6664V170H49.6134V163.669ZM50.7834 160.926V162.109H49.5094V160.926H50.7834ZM55.8199 163.513C57.3366 163.513 58.0949 164.349 58.0949 166.022V170H57.0419V166.087C57.0419 165.497 56.9249 165.068 56.6909 164.8C56.4656 164.531 56.1016 164.397 55.5989 164.397C55.0182 164.397 54.5546 164.574 54.2079 164.93C53.8612 165.285 53.6879 165.766 53.6879 166.373V170H52.6349V163.669H53.6749V164.709C53.8829 164.319 54.1732 164.024 54.5459 163.825C54.9186 163.617 55.3432 163.513 55.8199 163.513ZM65.6916 163.669V169.571C65.6916 170.515 65.4489 171.226 64.9636 171.703C64.4783 172.188 63.7589 172.431 62.8056 172.431C61.6963 172.431 60.7646 172.145 60.0106 171.573L60.3616 170.793C60.7863 171.07 61.1849 171.269 61.5576 171.391C61.9303 171.512 62.3463 171.573 62.8056 171.573C63.4123 171.573 63.8716 171.408 64.1836 171.079C64.4956 170.758 64.6516 170.286 64.6516 169.662V168.544C64.4696 168.951 64.1879 169.263 63.8066 169.48C63.4339 169.696 62.9919 169.805 62.4806 169.805C61.9259 169.805 61.4319 169.675 60.9986 169.415C60.5739 169.155 60.2403 168.786 59.9976 168.31C59.7636 167.833 59.6466 167.283 59.6466 166.659C59.6466 166.035 59.7636 165.484 59.9976 165.008C60.2403 164.531 60.5739 164.163 60.9986 163.903C61.4319 163.643 61.9259 163.513 62.4806 163.513C62.9833 163.513 63.4209 163.621 63.7936 163.838C64.1663 164.054 64.4479 164.362 64.6386 164.761V163.669H65.6916ZM62.6886 168.934C63.2953 168.934 63.7719 168.734 64.1186 168.336C64.4653 167.928 64.6386 167.369 64.6386 166.659C64.6386 165.957 64.4653 165.406 64.1186 165.008C63.7806 164.6 63.3039 164.397 62.6886 164.397C62.0733 164.397 61.5879 164.6 61.2326 165.008C60.8859 165.406 60.7126 165.957 60.7126 166.659C60.7126 167.369 60.8859 167.928 61.2326 168.336C61.5879 168.734 62.0733 168.934 62.6886 168.934ZM76.6083 160.835V170H75.5553V168.843C75.3647 169.241 75.083 169.549 74.7103 169.766C74.3463 169.982 73.9173 170.091 73.4233 170.091C72.8687 170.091 72.379 169.952 71.9543 169.675C71.5297 169.397 71.2003 169.012 70.9663 168.518C70.7323 168.015 70.6153 167.434 70.6153 166.776C70.6153 166.126 70.7323 165.554 70.9663 165.06C71.2003 164.566 71.5297 164.184 71.9543 163.916C72.379 163.647 72.8687 163.513 73.4233 163.513C73.9173 163.513 74.3463 163.621 74.7103 163.838C75.083 164.054 75.3647 164.362 75.5553 164.761V160.835H76.6083ZM73.6313 169.22C74.2467 169.22 74.719 169.012 75.0483 168.596C75.3863 168.171 75.5553 167.573 75.5553 166.802C75.5553 166.03 75.3863 165.437 75.0483 165.021C74.719 164.605 74.2467 164.397 73.6313 164.397C73.016 164.397 72.535 164.605 72.1883 165.021C71.8503 165.437 71.6813 166.022 71.6813 166.776C71.6813 167.547 71.8503 168.149 72.1883 168.583C72.535 169.007 73.016 169.22 73.6313 169.22ZM81.1847 170.091C80.5867 170.091 80.0581 169.956 79.5987 169.688C79.1481 169.419 78.7971 169.038 78.5457 168.544C78.3031 168.041 78.1817 167.46 78.1817 166.802C78.1817 166.143 78.3031 165.567 78.5457 165.073C78.7971 164.57 79.1481 164.184 79.5987 163.916C80.0581 163.647 80.5867 163.513 81.1847 163.513C81.7827 163.513 82.3114 163.647 82.7707 163.916C83.2301 164.184 83.5811 164.57 83.8237 165.073C84.0751 165.567 84.2007 166.143 84.2007 166.802C84.2007 167.46 84.0751 168.041 83.8237 168.544C83.5811 169.038 83.2301 169.419 82.7707 169.688C82.3114 169.956 81.7827 170.091 81.1847 170.091ZM81.1847 169.22C81.8087 169.22 82.2854 169.016 82.6147 168.609C82.9527 168.193 83.1217 167.59 83.1217 166.802C83.1217 166.03 82.9527 165.437 82.6147 165.021C82.2767 164.596 81.8001 164.384 81.1847 164.384C80.5694 164.384 80.0927 164.596 79.7547 165.021C79.4167 165.437 79.2477 166.03 79.2477 166.802C79.2477 167.582 79.4124 168.18 79.7417 168.596C80.0797 169.012 80.5607 169.22 81.1847 169.22ZM88.3957 170.091C87.7977 170.091 87.269 169.956 86.8097 169.688C86.359 169.419 86.008 169.038 85.7567 168.544C85.514 168.041 85.3927 167.46 85.3927 166.802C85.3927 166.143 85.514 165.567 85.7567 165.073C86.008 164.57 86.359 164.184 86.8097 163.916C87.269 163.647 87.7977 163.513 88.3957 163.513C88.9937 163.513 89.5223 163.647 89.9817 163.916C90.441 164.184 90.792 164.57 91.0347 165.073C91.286 165.567 91.4117 166.143 91.4117 166.802C91.4117 167.46 91.286 168.041 91.0347 168.544C90.792 169.038 90.441 169.419 89.9817 169.688C89.5223 169.956 88.9937 170.091 88.3957 170.091ZM88.3957 169.22C89.0197 169.22 89.4963 169.016 89.8257 168.609C90.1637 168.193 90.3327 167.59 90.3327 166.802C90.3327 166.03 90.1637 165.437 89.8257 165.021C89.4877 164.596 89.011 164.384 88.3957 164.384C87.7803 164.384 87.3037 164.596 86.9657 165.021C86.6277 165.437 86.4587 166.03 86.4587 166.802C86.4587 167.582 86.6233 168.18 86.9527 168.596C87.2907 169.012 87.7717 169.22 88.3957 169.22ZM96.5686 164.423L95.8796 164.488C95.2296 164.548 94.7573 164.752 94.4626 165.099C94.1766 165.445 94.0336 165.874 94.0336 166.386V170H92.9806V163.669H94.0076V164.774C94.3629 164.037 95.0606 163.625 96.1006 163.539L96.4776 163.513L96.5686 164.423ZM99.6451 170.091C98.5791 170.091 97.7341 169.818 97.1101 169.272L97.4611 168.492C97.7991 168.76 98.1415 168.955 98.4881 169.077C98.8435 169.189 99.2421 169.246 99.6841 169.246C100.152 169.246 100.507 169.168 100.75 169.012C101.001 168.847 101.127 168.613 101.127 168.31C101.127 168.058 101.045 167.859 100.88 167.712C100.715 167.564 100.442 167.447 100.061 167.361L98.9951 167.114C98.4578 166.992 98.0461 166.784 97.7601 166.49C97.4741 166.195 97.3311 165.831 97.3311 165.398C97.3311 164.834 97.5521 164.379 97.9941 164.033C98.4361 163.686 99.0255 163.513 99.7621 163.513C100.204 163.513 100.624 163.586 101.023 163.734C101.422 163.872 101.755 164.076 102.024 164.345L101.673 165.112C101.092 164.618 100.455 164.371 99.7621 164.371C99.3201 164.371 98.9735 164.457 98.7221 164.631C98.4795 164.795 98.3581 165.029 98.3581 165.333C98.3581 165.584 98.4318 165.788 98.5791 165.944C98.7351 166.091 98.9821 166.204 99.3201 166.282L100.399 166.542C100.988 166.68 101.426 166.893 101.712 167.179C101.998 167.456 102.141 167.82 102.141 168.271C102.141 168.825 101.916 169.267 101.465 169.597C101.023 169.926 100.416 170.091 99.6451 170.091Z" fill="#959595"/>
</svg>
